<mxfile host="app.diagrams.net" agent="Mozilla/5.0 (Macintosh; Intel Mac OS X 10_15_7) AppleWebKit/537.36 (KHTML, like Gecko) Chrome/131.0.0.0 Safari/537.36" version="24.8.3">
  <diagram name="Page-1" id="RusLLJiieBZuMcyg5y45">
    <mxGraphModel dx="1578" dy="1000" grid="1" gridSize="10" guides="1" tooltips="1" connect="1" arrows="1" fold="1" page="1" pageScale="1" pageWidth="850" pageHeight="1100" math="0" shadow="0">
      <root>
        <mxCell id="0" />
        <mxCell id="1" parent="0" />
        <mxCell id="QL6J_voHw_CYIguVn-OH-1" value="" style="rounded=0;whiteSpace=wrap;html=1;" vertex="1" parent="1">
          <mxGeometry x="160" y="80" width="1240" height="560" as="geometry" />
        </mxCell>
        <mxCell id="QL6J_voHw_CYIguVn-OH-15" style="edgeStyle=orthogonalEdgeStyle;rounded=0;orthogonalLoop=1;jettySize=auto;html=1;entryX=0;entryY=0.5;entryDx=0;entryDy=0;" edge="1" parent="1" source="QL6J_voHw_CYIguVn-OH-2" target="QL6J_voHw_CYIguVn-OH-8">
          <mxGeometry relative="1" as="geometry" />
        </mxCell>
        <UserObject label="&lt;b style=&quot;font-weight:normal;&quot; id=&quot;docs-internal-guid-5b43d009-7fff-79a3-e5bb-63e058557950&quot;&gt;&lt;img width=&quot;122px;&quot; height=&quot;51px;&quot; src=&quot;https://lh7-rt.googleusercontent.com/slidesz/AGV_vUdbdra_yulrFV9fM8RW0fl_JMgSWeBJc9vF6UvcZOVIvxKpA_MVQVGgAkUmuE1r8PcPfPRRvoe2pyak1QuxFAApEoEAkBoRCjzeJ-oqrsbJXGofiAaibNqXEc9y2c7qwMEM4m4vog=s2048?key=qyX8_bzi-rbOvcE1Sb9VhLHG&quot;&gt;&lt;/b&gt;" link="&lt;b style=&quot;font-weight:normal;&quot; id=&quot;docs-internal-guid-5b43d009-7fff-79a3-e5bb-63e058557950&quot;&gt;&lt;img width=&quot;122px;&quot; height=&quot;51px;&quot; src=&quot;https://lh7-rt.googleusercontent.com/slidesz/AGV_vUdbdra_yulrFV9fM8RW0fl_JMgSWeBJc9vF6UvcZOVIvxKpA_MVQVGgAkUmuE1r8PcPfPRRvoe2pyak1QuxFAApEoEAkBoRCjzeJ-oqrsbJXGofiAaibNqXEc9y2c7qwMEM4m4vog=s2048?key=qyX8_bzi-rbOvcE1Sb9VhLHG&quot;&gt;&lt;/b&gt;" id="QL6J_voHw_CYIguVn-OH-2">
          <mxCell style="text;whiteSpace=wrap;html=1;" vertex="1" parent="1">
            <mxGeometry y="315" width="120" height="60" as="geometry" />
          </mxCell>
        </UserObject>
        <UserObject label="&lt;b style=&quot;font-weight:normal;&quot; id=&quot;docs-internal-guid-05f18f2f-7fff-c5f6-5fbe-575b84ae4ae3&quot;&gt;&lt;img width=&quot;129px;&quot; height=&quot;44px;&quot; src=&quot;https://lh7-rt.googleusercontent.com/slidesz/AGV_vUcRb1vsuG4KScvdei2K1zsBEP9uYw5v7dXv586lM1bpcY20vO2xlf_NgBO2C5qJTwtsAQeY9iR56C1P8S-RD04mrYaRI5vu4Q_Ovs6yO32xi2R3buiqvwGHDeAYFrsP9eif6vvk=s2048?key=qyX8_bzi-rbOvcE1Sb9VhLHG&quot;&gt;&lt;/b&gt;" link="&lt;b style=&quot;font-weight:normal;&quot; id=&quot;docs-internal-guid-05f18f2f-7fff-c5f6-5fbe-575b84ae4ae3&quot;&gt;&lt;img width=&quot;129px;&quot; height=&quot;44px;&quot; src=&quot;https://lh7-rt.googleusercontent.com/slidesz/AGV_vUcRb1vsuG4KScvdei2K1zsBEP9uYw5v7dXv586lM1bpcY20vO2xlf_NgBO2C5qJTwtsAQeY9iR56C1P8S-RD04mrYaRI5vu4Q_Ovs6yO32xi2R3buiqvwGHDeAYFrsP9eif6vvk=s2048?key=qyX8_bzi-rbOvcE1Sb9VhLHG&quot;&gt;&lt;/b&gt;" id="QL6J_voHw_CYIguVn-OH-4">
          <mxCell style="text;whiteSpace=wrap;html=1;" vertex="1" parent="1">
            <mxGeometry x="160" y="70" width="130" height="10" as="geometry" />
          </mxCell>
        </UserObject>
        <mxCell id="QL6J_voHw_CYIguVn-OH-5" value="" style="rounded=0;whiteSpace=wrap;html=1;" vertex="1" parent="1">
          <mxGeometry x="210" y="150" width="610" height="430" as="geometry" />
        </mxCell>
        <UserObject label="&lt;b style=&quot;font-weight:normal;&quot; id=&quot;docs-internal-guid-81de995d-7fff-4b1e-2a65-83eb2caf6ae2&quot;&gt;&lt;img width=&quot;59px;&quot; height=&quot;91px;&quot; src=&quot;https://lh7-rt.googleusercontent.com/slidesz/AGV_vUcb0iLPH09WpLvbFYHj2HJTaxEvcxaVhM12sTVv4qSrN1KcCHaH7_ilCRjLf7ftMxi97d-LXZjoFbzriz_pBDRaZhdAP7RDaricep8aSfT1oEmRRa7kzYTAjPkjM5_DLhfFXFJYOw=s2048?key=qyX8_bzi-rbOvcE1Sb9VhLHG&quot;&gt;&lt;/b&gt;" link="&lt;b style=&quot;font-weight:normal;&quot; id=&quot;docs-internal-guid-81de995d-7fff-4b1e-2a65-83eb2caf6ae2&quot;&gt;&lt;img width=&quot;59px;&quot; height=&quot;91px;&quot; src=&quot;https://lh7-rt.googleusercontent.com/slidesz/AGV_vUcb0iLPH09WpLvbFYHj2HJTaxEvcxaVhM12sTVv4qSrN1KcCHaH7_ilCRjLf7ftMxi97d-LXZjoFbzriz_pBDRaZhdAP7RDaricep8aSfT1oEmRRa7kzYTAjPkjM5_DLhfFXFJYOw=s2048?key=qyX8_bzi-rbOvcE1Sb9VhLHG&quot;&gt;&lt;/b&gt;" id="QL6J_voHw_CYIguVn-OH-6">
          <mxCell style="text;whiteSpace=wrap;html=1;" vertex="1" parent="1">
            <mxGeometry x="210" y="150" width="60" height="100" as="geometry" />
          </mxCell>
        </UserObject>
        <UserObject label="&lt;meta charset=&quot;utf-8&quot;&gt;&lt;b id=&quot;docs-internal-guid-b613186f-7fff-1848-9c11-ea0f9c1da763&quot; style=&quot;font-weight:normal;&quot;&gt;&lt;img src=&quot;https://lh7-rt.googleusercontent.com/slidesz/AGV_vUel6fSkpZyQudkEK3jfwEzBytmWeipZRU_d30hSUiY2DaB3i6a0jRRCw1nucrhc6Eue4uDGF7ojbHKvkVDNNLN8_d5J_TDgNJvAzO9OEpyLt0STkiMGpjOBVwVmj1g0kO06WNVpkA=s2048?key=qyX8_bzi-rbOvcE1Sb9VhLHG&quot; height=&quot;66px;&quot; width=&quot;176px;&quot;&gt;&lt;/b&gt;" link="&lt;meta charset=&quot;utf-8&quot;&gt;&lt;b id=&quot;docs-internal-guid-b613186f-7fff-1848-9c11-ea0f9c1da763&quot; style=&quot;font-weight:normal;&quot;&gt;&lt;img src=&quot;https://lh7-rt.googleusercontent.com/slidesz/AGV_vUel6fSkpZyQudkEK3jfwEzBytmWeipZRU_d30hSUiY2DaB3i6a0jRRCw1nucrhc6Eue4uDGF7ojbHKvkVDNNLN8_d5J_TDgNJvAzO9OEpyLt0STkiMGpjOBVwVmj1g0kO06WNVpkA=s2048?key=qyX8_bzi-rbOvcE1Sb9VhLHG&quot; height=&quot;66px;&quot; width=&quot;176px;&quot;&gt;&lt;/b&gt;" id="QL6J_voHw_CYIguVn-OH-7">
          <mxCell style="rounded=0;whiteSpace=wrap;html=1;" vertex="1" parent="1">
            <mxGeometry x="290" y="210" width="490" height="80" as="geometry" />
          </mxCell>
        </UserObject>
        <mxCell id="QL6J_voHw_CYIguVn-OH-16" style="edgeStyle=orthogonalEdgeStyle;rounded=0;orthogonalLoop=1;jettySize=auto;html=1;exitX=0.5;exitY=1;exitDx=0;exitDy=0;" edge="1" parent="1" source="QL6J_voHw_CYIguVn-OH-8" target="QL6J_voHw_CYIguVn-OH-13">
          <mxGeometry relative="1" as="geometry" />
        </mxCell>
        <mxCell id="QL6J_voHw_CYIguVn-OH-8" value="Extract Data" style="rounded=1;whiteSpace=wrap;html=1;" vertex="1" parent="1">
          <mxGeometry x="250" y="315" width="120" height="60" as="geometry" />
        </mxCell>
        <mxCell id="QL6J_voHw_CYIguVn-OH-18" style="edgeStyle=orthogonalEdgeStyle;rounded=0;orthogonalLoop=1;jettySize=auto;html=1;exitX=0.5;exitY=1;exitDx=0;exitDy=0;" edge="1" parent="1" source="QL6J_voHw_CYIguVn-OH-9" target="QL6J_voHw_CYIguVn-OH-14">
          <mxGeometry relative="1" as="geometry" />
        </mxCell>
        <mxCell id="QL6J_voHw_CYIguVn-OH-9" value="Transform Data" style="rounded=1;whiteSpace=wrap;html=1;" vertex="1" parent="1">
          <mxGeometry x="450" y="315" width="120" height="60" as="geometry" />
        </mxCell>
        <mxCell id="QL6J_voHw_CYIguVn-OH-21" style="edgeStyle=orthogonalEdgeStyle;rounded=0;orthogonalLoop=1;jettySize=auto;html=1;exitX=1;exitY=0.5;exitDx=0;exitDy=0;entryX=0;entryY=0.5;entryDx=0;entryDy=0;" edge="1" parent="1" source="QL6J_voHw_CYIguVn-OH-12" target="QL6J_voHw_CYIguVn-OH-20">
          <mxGeometry relative="1" as="geometry" />
        </mxCell>
        <mxCell id="QL6J_voHw_CYIguVn-OH-12" value="Load Data" style="rounded=1;whiteSpace=wrap;html=1;" vertex="1" parent="1">
          <mxGeometry x="650" y="315" width="120" height="60" as="geometry" />
        </mxCell>
        <mxCell id="QL6J_voHw_CYIguVn-OH-17" style="edgeStyle=orthogonalEdgeStyle;rounded=0;orthogonalLoop=1;jettySize=auto;html=1;exitX=1;exitY=0.5;exitDx=0;exitDy=0;entryX=0;entryY=0.5;entryDx=0;entryDy=0;" edge="1" parent="1" source="QL6J_voHw_CYIguVn-OH-13" target="QL6J_voHw_CYIguVn-OH-9">
          <mxGeometry relative="1" as="geometry" />
        </mxCell>
        <UserObject label="&lt;b style=&quot;font-weight:normal;&quot; id=&quot;docs-internal-guid-ad52131e-7fff-7658-8190-d7f04417de59&quot;&gt;&lt;img width=&quot;88px;&quot; height=&quot;79px;&quot; src=&quot;https://lh7-rt.googleusercontent.com/slidesz/AGV_vUc8erfGFxYgyfkEx04ZgFLYMAK33i20rqalFmk1wZGzokUwUacOvyGEGJbN4YoMMX2zcY7PzMAGqbznQbawWPq3MOx4utePP1XQ9UWSDEEkFhSmhGZoXwIzrK2OsyxyHfacFuJiNQ=s2048?key=qyX8_bzi-rbOvcE1Sb9VhLHG&quot;&gt;&lt;/b&gt;" link="&lt;b style=&quot;font-weight:normal;&quot; id=&quot;docs-internal-guid-ad52131e-7fff-7658-8190-d7f04417de59&quot;&gt;&lt;img width=&quot;88px;&quot; height=&quot;79px;&quot; src=&quot;https://lh7-rt.googleusercontent.com/slidesz/AGV_vUc8erfGFxYgyfkEx04ZgFLYMAK33i20rqalFmk1wZGzokUwUacOvyGEGJbN4YoMMX2zcY7PzMAGqbznQbawWPq3MOx4utePP1XQ9UWSDEEkFhSmhGZoXwIzrK2OsyxyHfacFuJiNQ=s2048?key=qyX8_bzi-rbOvcE1Sb9VhLHG&quot;&gt;&lt;/b&gt;" id="QL6J_voHw_CYIguVn-OH-13">
          <mxCell style="text;whiteSpace=wrap;html=1;" vertex="1" parent="1">
            <mxGeometry x="265" y="450" width="90" height="90" as="geometry" />
          </mxCell>
        </UserObject>
        <mxCell id="QL6J_voHw_CYIguVn-OH-19" style="edgeStyle=orthogonalEdgeStyle;rounded=0;orthogonalLoop=1;jettySize=auto;html=1;entryX=0;entryY=0.5;entryDx=0;entryDy=0;" edge="1" parent="1" source="QL6J_voHw_CYIguVn-OH-14" target="QL6J_voHw_CYIguVn-OH-12">
          <mxGeometry relative="1" as="geometry" />
        </mxCell>
        <UserObject label="&lt;b style=&quot;font-weight:normal;&quot; id=&quot;docs-internal-guid-ad52131e-7fff-7658-8190-d7f04417de59&quot;&gt;&lt;img width=&quot;88px;&quot; height=&quot;79px;&quot; src=&quot;https://lh7-rt.googleusercontent.com/slidesz/AGV_vUc8erfGFxYgyfkEx04ZgFLYMAK33i20rqalFmk1wZGzokUwUacOvyGEGJbN4YoMMX2zcY7PzMAGqbznQbawWPq3MOx4utePP1XQ9UWSDEEkFhSmhGZoXwIzrK2OsyxyHfacFuJiNQ=s2048?key=qyX8_bzi-rbOvcE1Sb9VhLHG&quot;&gt;&lt;/b&gt;" link="&lt;b style=&quot;font-weight:normal;&quot; id=&quot;docs-internal-guid-ad52131e-7fff-7658-8190-d7f04417de59&quot;&gt;&lt;img width=&quot;88px;&quot; height=&quot;79px;&quot; src=&quot;https://lh7-rt.googleusercontent.com/slidesz/AGV_vUc8erfGFxYgyfkEx04ZgFLYMAK33i20rqalFmk1wZGzokUwUacOvyGEGJbN4YoMMX2zcY7PzMAGqbznQbawWPq3MOx4utePP1XQ9UWSDEEkFhSmhGZoXwIzrK2OsyxyHfacFuJiNQ=s2048?key=qyX8_bzi-rbOvcE1Sb9VhLHG&quot;&gt;&lt;/b&gt;" id="QL6J_voHw_CYIguVn-OH-14">
          <mxCell style="text;whiteSpace=wrap;html=1;" vertex="1" parent="1">
            <mxGeometry x="465" y="450" width="90" height="90" as="geometry" />
          </mxCell>
        </UserObject>
        <UserObject label="&lt;b style=&quot;font-weight:normal;&quot; id=&quot;docs-internal-guid-2a21dacb-7fff-d080-7dc4-990e48244d6a&quot;&gt;&lt;img width=&quot;94px;&quot; height=&quot;94px;&quot; src=&quot;https://lh7-rt.googleusercontent.com/slidesz/AGV_vUedeZsmnIBfkmYz3pH_3QZuCQBenrdwzA5TUQLYWHnlL94J5mEHWXxZlVarkra8d-RY26Q6I1sEzltiJF05atdIHMuVCQPu1s3YH6dxxEv2t8P6yZs01yfDdCqnC1NjuvIxLazqHw=s2048?key=qyX8_bzi-rbOvcE1Sb9VhLHG&quot;&gt;&lt;/b&gt;" link="&lt;b style=&quot;font-weight:normal;&quot; id=&quot;docs-internal-guid-2a21dacb-7fff-d080-7dc4-990e48244d6a&quot;&gt;&lt;img width=&quot;94px;&quot; height=&quot;94px;&quot; src=&quot;https://lh7-rt.googleusercontent.com/slidesz/AGV_vUedeZsmnIBfkmYz3pH_3QZuCQBenrdwzA5TUQLYWHnlL94J5mEHWXxZlVarkra8d-RY26Q6I1sEzltiJF05atdIHMuVCQPu1s3YH6dxxEv2t8P6yZs01yfDdCqnC1NjuvIxLazqHw=s2048?key=qyX8_bzi-rbOvcE1Sb9VhLHG&quot;&gt;&lt;/b&gt;" id="QL6J_voHw_CYIguVn-OH-20">
          <mxCell style="text;whiteSpace=wrap;html=1;" vertex="1" parent="1">
            <mxGeometry x="860" y="295" width="100" height="100" as="geometry" />
          </mxCell>
        </UserObject>
        <mxCell id="QL6J_voHw_CYIguVn-OH-22" value="Amazaon S3&lt;div&gt;(raw data)&lt;/div&gt;" style="text;html=1;align=center;verticalAlign=middle;whiteSpace=wrap;rounded=0;" vertex="1" parent="1">
          <mxGeometry x="265" y="550" width="90" height="20" as="geometry" />
        </mxCell>
        <mxCell id="QL6J_voHw_CYIguVn-OH-23" value="Amazaon S3&lt;div&gt;(transformed&amp;nbsp; data)&lt;/div&gt;" style="text;html=1;align=center;verticalAlign=middle;whiteSpace=wrap;rounded=0;" vertex="1" parent="1">
          <mxGeometry x="460" y="550" width="110" height="20" as="geometry" />
        </mxCell>
        <mxCell id="QL6J_voHw_CYIguVn-OH-24" value="Amazaon Redshift&lt;div&gt;(data warehouse)&lt;/div&gt;" style="text;html=1;align=center;verticalAlign=middle;whiteSpace=wrap;rounded=0;" vertex="1" parent="1">
          <mxGeometry x="855" y="395" width="110" height="20" as="geometry" />
        </mxCell>
        <mxCell id="QL6J_voHw_CYIguVn-OH-26" value="" style="shape=image;verticalLabelPosition=bottom;labelBackgroundColor=default;verticalAlign=top;aspect=fixed;imageAspect=0;image=data:image/png,iVBORw0KGgoAAAANSUhEUgAAAwgAAAFCCAYAAABVWfo0AAAAAXNSR0IArs4c6QAAIABJREFUeF7snQl8nVWZ/59zzrvdPUlXuqZZmjZlEQGXv/5ncAFHR8cFcEZFKIKiSBEREXVccWFVRBxBBQRxK6IzozOOM38GFEUZYEChbdauaema5e7vds6f59z7prdpkq5pSfK8n08+Cc2973vO95wbnt95NgZ0EQEiQASIABEgAkSACBABIkAEqgQYkSACRIAIEAEiQASIABEgAkSACEQESCDQXiACRIAIEAEiQASIABEgAkRgmAAJBNoMRIAIEAEiQASIABEgAkSACJBAoD1ABIgAESACRIAIEAEiQASIwP4EyINAu4IIEAEiQASIABEgAkSACBAB8iDQHiACRIAIEAEiQASIABEgAkSAPAi0B4gAESACRIAIEAEiQASIABEYhwCFGNH2IAJEgAgQASJABIgAESACRGCYAAkE2gxEgAgQASJABIgAESACRIAIkECgPUAEiAARIAJEgAgQASJABIjA/gTIg0C7gggQASJABIgAESACRIAIEAHyINAeIAJEgAgQASJABIgAESACRIA8CLQHiAARIAJEgAgQASJABIgAERiHAIUY0fYgAkSACBABIkAEiAARIAJEYJgACQTaDESACBABIkAEiAARIAJEgAiQQKA9QASIABEgAkSACBABIkAEiMD+BMiDQLuCCBABIkAEiAARIAJEgAgQAfIg0B4gAkSACBABIkAEiAARIAJEgDwItAeIABEgAkSACBABIkAEiAARGIcAhRjR9iACRIAIEAEiQASIABEgAkRgmAAJBNoMRIAIEAEiQASIABEgAkSACJBAoD1ABIgAESACRIAIEAEiQASIwP4EyINAu4IIEAEiQASIABEgAkSACBAB8iDQHiACRIAIEAEiQASIABEgAkSAPAi0B4gAESACRIAIEAEiQASIABEYhwCFGNH2IAJEgAgQASJABIgAESACRGCYAAkE2gxEgAgQASJABIgAESACRIAIkECgPUAEiAARIAJEgAgQASJABIjA/gTIg0C7gggQASJABIgAESACRIAIEAHyINAeIAJEgAgQASJABIgAESACRIA8CLQHiAARIAJEgAgQASJABIgAERiHAIUY0fYgAkSACBABIkAEiAARIAJEYJgACQTaDESACBABIkAEiAARIAJEgAiQQKA9QASIABEgAkSACBABIkAEiMD+BMiDQLuCCBABIkAEiAARIAJEgAgQAfIg0B4gAkSACBABIkAEiAARIAJEgDwItAeIABEgAkSACBABIkAEiAARGIcAhRjR9iACRIAIEAEiQASIABEgAkRgmAAJBNoMRIAIEAEiQASIABEgAkSACJBAoD1ABIgAESACRIAIEAEiQASIwP4EyINAu4IIEAEiQASIABEgAkSACBAB8iDQHiACRIAIEAEiQASIABEgAkSAPAi0B4gAESACRIAIEAEiQASIABEYhwCFGNH2IAJEgAgQASJABIgAESACRGCYAAkE2gxEgAgQASJABIgAESACRIAIkECgPUAEiAARIAJEgAgQASJABIjA/gTIg0C7gggQASJABIgAESACRIAIEAHyINAeIAJEgAgQASJABIgAESACRIA8CLQHiAARIAJEgAgQASJABIgAERiHAIUY0fYgAkSACBABIkAEiAARIAJEYJgACQTaDESACBABIkAEiAARIAJEgAiQQKA9QASIABEgAkSACBABIkAEiMD+BMiDQLuCCBABIkAEiAARIAJEgAgQAfIg0B4gAkSACBABIkAEiAARIAJEgDwItAeIABEgAkSACBABIkAEiAARGIcAhRjR9iACRIAIEAEiQASIABEgAkRgmAAJBNoMRIAIEAEiQASIABEgAkSACJBAoD1ABIgAESACRIAIEAEiQASIwP4EyINAu4IIEAEiQASIABEgAkSACBAB8iDQHiACRIAIEAEiQASIABEgAkSAPAi0B4gAESACRIAIEAEiQASIABEYhwCFGNH2IAJEgAgQASJABIgAESACRGCYAAkE2gxEgAgQASJABIgAESACRIAIkECgPUAEiAARIAJEgAgQASJABIjA/gTIg0C7gggQASJABIgAESACRIAIEAHyINAeIAJEgAgQASJABIgAESACRIA8CLQHiAARIAJEgAgQASJABIgAERiHAIUY0fYgAkSACBABIkAEiAARIAJEYJgACQTaDESACBABIkAEiAARIAJEgAiQQKA9QASIABEgAkSACBABIkAEiMD+BMiDQLuCCBABIkAEiAARIAJEgAgQAfIg0B4gAkSACBABIkAEiAARIAJEgDwItAeIABEgAkSACBABIkAEiAARGIcAhRjR9iACRIAIEAEiQASIABEgAkRgmAAJBNoMRIAIEAEiQASIABEgAkSACJBAoD1ABIgAESACRIAIEAEiQASIwP4EyINAu4IIEAEiQASIABEgAkSACBAB8iDQHiACRIAIEAEiQASIABEgAkSAPAi0B4gAESACRIAIEAEiQASIABEYhwCFGNH2IAJEgAgQASJABIgAESACRGCYAAkE2gxEgAgQASJABIgAESACRIAIkECgPUAEiAARIAJEgAgQASJABIjA/gTIg0C7gggQASJABIgAESACRIAIEAHyINAeIAJEgAgQASJABIgAESACRIA8CLQHpiCBd3zvocV5J/6KQTvx8qB+7rwtRQ9UsgF8MAAkV0ICCJDAVQhcBUqKEBRIAOAQQAxACe1Ji14jVMgMCMEMQ7AgAJsDE34ZRFgCoUIwZQAq8JVtGxD6oSbKJT5q/+8COCgOwCRUviv9I3CA6giikUT/jXdTB/TsMQDGJANTCgBhQWiYUAIAz7KgIATkcT7JJOQDnKsBEoR+qsDXKwbIBEBBKHD8+47o4P8bIOCGvi+TEmcKDMIqoxAM5YMZesoRHISP7DwQvgdC+QBhAJYhADQ+HBMA4KzH+S6ZQoQ1oxUAganfaMtQMfARNPOZgLwtIG9YkLcdVmIWCzmAzQxIul7glMqdibL3P87Alscfuvz1e6bgR4KmRASIABEgAkTgiAgc0BA5orvTm4nABBJ4w/cea8jNmX/+dh/eo2KJU3cXymZZmcCcJHheCI4dh8D3QSg0XtESDSDkCkIeQIgWsgIQEo1mNDvxq3IxNFKjf5EKQCrgMgRTMDC4gFIxD7MaZsBgbhCYCSAZig/8Dsf0O354TWmCyQ3oz+bATiQh4ADKNMFXAK5bBm7ZWm5EcxIKf1bDAgUNZxz3Aa3zUax3vCd+7SWHBj7Xr9T8qr9HfrgGpuCaX7GQq/DL9wMz5WHzY4qDFQo9hpCHel0DoSBkKFwESjwIQwukryCdzIBXLIHNFAjwIWaw/hkmPCGyG+6dm9r181+/6U3uBG5VujURIAJEgAgQgUlFgATCpFouGmxE4LzVv5vVYy34zDYjcdkeJYQwbAgkh5AJENwGFYQggxAszoDpM2cFikkIeeWrYsUqMENZ/bFi5irGtJErGVralX8TwoAwDEGhYa04CCHAdV0wbAMCPIHXPoExLlVVG4f7exzPmO8FMMEA33XBdhIQyMoY9Rco4IYBEO4dG3JAox3P4PVhPfJgONfD8yBwJaEiOKIBog+hIrYqT+B6LIKbIKWs/MwYcM41P2EJbdQDCw5rY+OwbcX10wKuwEPRF2k9XDv0lgQcbMMGN18GQ+CzKyouBB+kn4f6mL91VjF728l+/psPvPP/oBOGLiJABIgAESAC054ACYRpvwUmJ4AzfvLMtVvjM786yA3wmVVjlBpVIzU6GcfD8VoDHg3/igjAf694Fvb+Hv+lcu1zLj4MCY3R6NKvrVjaxweiPsL3KhZ6NIaqqEEhEwkcLQmGvQTVoeJ/sxBAoVhCBgeI7xnt91VPxPDkFas+Zxx+NXqpMibjCPgpsKRXCZXiACGKKT2vaqhSNDD0cujQJVUZX/SF4oSHkPBct62Qv/B/z2n/6fFZSHoqESACRIAIEIEXF4HjZNm8uCDQaCYXgTf/4L9PedaY//Nc/QlNOenpkBIMN9FGsfYXcFDRybg+yK4a9ZHRjK+tWKcg0TgePkEfyWGEZ0AnEox8DYqTqkiIDPVj9j0E0CfwaOhXBY0WPyMMdC2GIsO59mecDwqE6rwOVSPUohj3L0kNNG2oR+uBeRGVHIbhOKgoHupgvut8h4r3Qa93JNiisQyLn+rzonXWv8eEEdw4+C4GC4ZyP1uW3/zh/7zgVTsn16eBRksEiAARIAJE4OgTIIFw9JnSHSeYwOn/0vHxLar+xn5mgW/jKboEXs0lYIppDwLa/3iqjCfE2iCNjF80UBWAqX8J4GsjsRI7v6+noWrU6k9IJBRGCSWSmCQbGeSHF6pz8EnBI+6v53WAEKb91qJmDlowYYIwhukc3ij07ff5KzJSVNXw08JpxICGvS+HM4JqzocevQCIwsKiNdOeERQQOKZKMnlFSFXCn/TrQwDLNKC+WNzalN984R/PP+WhCd6+dHsiQASIABEgAi96AiQQXvRLRAPch8DnFJ95cs+DgT33bSVugatDbFAgVLwIGBOPNmhFIGBMeo1AqNqqkZhAQ7ESg1/7hBoxMWx8j+NJUHgCHlnJB1GKZ79QnSNZXxQ3I0Khak/oh63xUcYfGcvKBC6jORzaWIa57eN5qOVXIw40omgcUUjU4fCqfRjeFMdeqdBUG1JV8YpUhYFOIt83zKwSSob5CRa4Q3mYG0/AUrnzyt+9Zd43Do0CvZoIEAEiQASIwNQjQAJh6q3plJ7RmfdscNYsqHtiMKtOlDwGoWXqA+FK3jEagVFMfQCKY8x5NYRGU6kkrnJlgAgrRiWKiEr1oUp8eqUaUcV8HDYpR0lCjpJ998I+nBPwcZKbD2IVdSI1oAej+uxqrH1UpajW84Fzw6TkvTH4VSN9RK7CQTx2xEsqAmW4ihPIfYqmVrTTyHmiwX64vPa+T89Fl1mthlVVvUO4lnuTp/c+G50Vw8JRCwoAKwQwAwam4jC/tOWGNe9pvfbQGdA7iAARIAJEgAhMLQIkEKbWek752bxy9WOxZzMnPe656iTDjkPZlyA5Gnt748zRQKxUxkGDuDamhWlxoEtxVkNrQPcBwGtE7MtYlYn2C0XC9x5JaNHhv7/SeaAidPZWKKqUMR2+auZRMZArnKJXDP8B2KdZQ9S04QDfa1O5R+VSux1HioSjIBB0xFDkQal4DCIOFYHAQVVUhE5x0LWsIgaoKLH8retDJpaGXH8ZTomVr3/qbbM/OeU/RDRBIkAEiAARIAIHIEACgbbIpCLwytVbYj0z5v9p1/a+k0V9uhJGhJeOP8ftXBEAw5cMqyHyNSfJUTJr5Y3jlimteApqbjdGdaPa1meHJhiqJ+yHYaBjWi5W9oyCbobzLqrT2ic3oDp9PLnXvQuq80LBgJ6Fwxt/TaWoMQRCxVNQyy/6+cgFgi6mKjF/IgCpQ8kCUCyohoyhZwH3AuZYVMOQdERTtWoVw6ZqAZiGAL8UgAji0O4P3vDsefPJgzCp/iLQYIkAESACRGAiCJBAmAiqdM8JI4AC4Vm77o8iaZ8yVBoCboQjDMIo5AbDThTYrgdO6OquvmhQ4qk79kXT9nK1wdl4eb4jPyCVOv+115F+hHTGxGEZ6HhabkoJTKGRX0nKxopO+FWp4rR3nNgMDkUBfkU/428rIVaHH+q0P48x6FSFwtGsCIsJ6TrZHPs5CFdXpJI8AJ9zCJgBAXMg4BnQ3eyGg8Zwrn4laVl7mQIAaYANKVha3HnDs+cuJIEwYZ9eujERIAJEgAhMFgJHat1MlnnSOKcIAQwxWps+6bGs670EG4FxPAnGSxl4ng4hMwCYABAcIHBhTn7goRYHeqzCbsP0yzIwYoA+BS/0VTzmgF/2sS3aMB2lO6WNd4349Qi9wNnI9499O0yRruiNAyfrKoXlltCgxdPwvd+NEYIlGPE4VTO3vR2i9yYl6yZjE/hXQEWhX5gQchQvBkrxUCjfFyqeiMOQP6QwXEzxUOYCKSGegX4/Lvz4wpOGpHi1b1TVkXS1F0HoVnISpG7eJkCUJSwPB27487lLSCAcxXWiWxEBIkAEiMDkJDCBpsHkBEKjfnETWLD6sVguveIPWTc4lZkWCFXJIcCcAjzN1lWJ0JYWHCyvCCeF+Xc+9dYFD7y4Z0WjmwgC561W4kkj/8GdIn57SYQgDQkgK7kpOiJNVjw3OgDJDaA9HLjh6XObSSBMxGLQPYkAESACRGBSESCBMKmWiwaLAiGbav9DzgtPVaYznD9QG+seVS6q87LQOth3zhMXvPLnRG56Ejj1wU2rNhrJ24qCQWAICFEU6FYI1cpHcq9AWC4HbnzmnOZPTE9SNGsiQASIABEgAnsJkECg3TCpCFQFwu9zXvhSLRCiEB9drlNnGFRi8nkIM9xBOLm087yH3vWKn02qSdJgjxqBlz24ZlW3WX9bmXPwDRNCiRWNGIBRaZKGEViRB4EEwlHDTjciAkSACBCBSU6ABMIkX8DpNvx9BIIdq1alqXbI1WHmWOoy1NVsZrmDsHRw87mPrnztg9ONE823QuDUB9es6nAabguxGZywIJAMJMccFaxwhCFHIejsFTcAEgi0a4gAESACRIAIVAiQQKCdMKkIaIGQbH8054enqX0EQiXXd7iBGat4EF5a3HPub959BgmESbXKR2+wpzy4btXaeN1tEBrAuAVKYnM8DkoYoLBfhAyGBQLlIBw97nQnIkAEiAARmNwESCBM7vWbdqNHgTCYXP5owZengW2D0nXtMVRkb0ffyn9KmFHOQntu+7mPvpcEwrTbKNUJtz+4blVnou42FnLg3AAZYogRB2UYIDEfQSlKUp6um4PmTQSIABEgAmMSIIFAm2NSEdhPIOhA8kqI0chE5RluFtoGt5372EoSCJNqkY/iYNt/0bWq20ndhg3TGBOgi14xAUHkQSCBcBRp062IABEgAkRgqhAggTBVVnKazKNWIIysYrS34VmlOzAKhBOHtp/7MAmEabI79p9m+y96Vm0wk7cF3ACFDdNCBQxQIJigUFxKBQar5CBQiNG03SY0cSJABIgAERhBgAQCbYlJRaBWIDDTGe4CzKUBKBAqTc8q3YEbvEE4cej5cx9e+QrKQZhUq3z0BrvsX9ev2szSt7ncBOACWMABu9NhonKI4WkqIIFw9HDTnYgAESACRGCKECCBMEUWcrpM45AFwuC2cx6+iPogTJf9MXKerf+6ddXzKn1bEXMOuAGGL3WokRYIgF24USAE5EGYrhuE5k0EiAARIAKjEiCBQBtjUhEYSyAITFLGPATtQQAIeQANXhbaB/rO+R0JhEm1xkdtsEqx5l/uuHynTN1WMCuigAcSBGCpU0YehKMGmm5EBIgAESACU40ACYSptqJTfD77CgRrOMRIYJ17vBQHxTHECKDeG4T2oa3n/OGCl1En5Sm+L0adnlJs2T/vuHw7JG7LWQChYFogMKZACixgpPR+iRqlUQ7CdNwkNGciQASIABEYjQAJBNoXk4rAWAIBKxgx7KaMGoFVqp7Wl7PQlt1yzp9IIEyqNT5qg60RCAUTwDcV8CCsCgQFqrpRDOAUYnTUoNONiAARIAJEYCoQIIEwFVZxGs1hnypGlgXAKiFFlTKnlR/Re4BXPYYYkQdhGu2OEVPVAmHX5dtV4raCxSEQCkTo4VYBKVAgYKM09CCQQJi+m4RmTgSIABEgAqMRIIFA+2JSERhPIOBEUCRogYBlTstZWEE5CJNqfY/qYFEg/HzX5ds45iAwHVYkwjIwBhAIho239WahEKOjSp1uRgSIABEgAlOAAAmEKbCI02kKKBAG4m2PliQ7TZrmCA8ChhhV8g+0QHAHYVn/lnP+cNGrKQdhOm2SaK5Ksfaf77q8z8zclsWtwUMwlQfYLS1gJigm9D5hQQCOZNDi7bjh2fParp2OqGjORIAIEAEiQARqCZBAoP0wqQjsJxBw9EwC9kGoXJUeCHjNdAehbYAEwqRa4KM82GUPbl21zaq7rQhMhxhx5urmaApsQN+BZCGw0COBcJS50+2IABEgAkRgchMggTC512/ajb4qEH5Xkux07UE4gEBYuqfv3McufhU1Spt2O6Uy4WW/WH/5ViPzTRVy8AUH10bxiDFGNgjJQPEQFAmEabo7aNpEgAgQASIwFgESCLQ3JhUBEgiTarmO+2CX/7zzw5uszO08sCEUHEpOAMA4gOfsLxDcHdc/+862Tx73QdMAiAARIAJEgAgcZwIkEI7zAtDjD43AoYYYkQfh0PhOtVeveGDtZd3xmd+SMg5SMJBGuTLFwAGuxL4hRiQQptry03yIABEgAkTgMAmQQDhMcPS240OABMLx4T5Zn7r8wc7LOuNzviWlDcDReZAHpkIAmQCFicqqJgeBBMJkXWYaNxEgAkSACBxlAiQQjjJQut3EEiCBMLF8p9rdm3+x6QO9sVl3gsJ8lQA4y4GQEiQ4AMyCEMK9VYxIIEy15af5EAEiQASIwGESIIFwmODobceHAAmE48N9Mj71dfc+PmPtjEXXPW/Uf0i314YQOJRBqAAkYJM9A0JQJBAm4+LSmIkAESACRGBCCZBAmFC8dPOjTeCVqx+L/dlZ+juPG6cHQlRuP06ZU8pBONorMDnud+bq55LPm85HdxjpT+eFY4ec687J6D3ASzE+3HHbUAp42YflMHj9n9/RTEnKk2OJaZREgAgQASIwgQRIIEwgXLr10SdAAuHoM51qdzxv9WOxp9mMTwwlZnyqKJUZcA4hCgKF3dIMAMVB8mB42iQQptoOoPkQASJABIjAkRIggXCkBOn9x5QACYRjinvSPezs+/6c6HVSV3oNs/9xR6Hg2EJBiFVNuQmBQnFga4EAzAdAkaA4kEA4asuM/z9RR+1udKOpQmA0O4P2yVRZXZrHlCVAAmHKLu3UnBgJhKm5rkdjVm+8/0/pdbETPpxNzPhyIQxZqAKwma/TD1zAhGQbgFWb64Gru25jaaOpLBCWLl0605RydgjGLIAgrUDEJJOCK1UIAXaWy+UtfX1923WCxrG5+NKlSxtc103h41zXzc+fP3/wqaee8g/28e3t7UnDMOry+Tx3XbewdevWwaM9/nnz5sVnzpw5JwiC2WEY1kspE2EY2pxzTwjRr5Ta5jjOlr/85S+Fgx33i/l1yDQMw3QQBHHHcXBdyuVyeU9fX1/pGI9bzJ49e2Z9fX08l8tZ8Xgc+e7q6enBDyxdRIAIHEMCJBCOIWx61JETIIFw5Ayn4h1Ou/PJeH7Bgqt2GnX/OOCFtkBJYCqQKgAlGYQQgxDFgcAwIwkgXRBKYYoycPwq+7BCDt7w9LnN1052Pk1NTRlbiDNCpV7LmDgRQM0BpeYqgHqlVAzjrJRSWQDoE6bRJ6VcWyqVfpNOp3+/du3a/MHOv7m5eXbgBq+2YlbGFEL5fgiCCyiXC0wy1p1MJv9n7dq1Ht6vvb3dcgvuq73Qe6NtWq2KqbRlmlJJKASh3weK/0eggkc3btyIxv5oF1uyZMlJjmW9MfCDl5Q9tyEWiwnTsgqlUqkvCIJHHMd5uKura/fBjn/k684880xjy5YtywzDeB0Hfrrnu/MNYcxVSs2UUqaVQvcT+IyxHZzzPsagVwL8Xkr5b729vVsO4blsxYoVpxeLxVdYhsUYMH2ariqZ9JULN6X+Nv4VSAmxWIy5rqsMw3hszZo1TxzsOE477bT40J6hM4Rgr1cAzVzweiFEIghDMDgvB6HcFYZhp8Hht3uGhp7atWvXQe8NHENLS8uCQqFwommaphAC8CsMQ8YYQzHatX79+p7I4zRnzpyEYzp/xQ32N5ZhLgHG4lKGlgIouqXydtu2/j2WTP7Xs88+O3Cw86PXEQEicGQESCAcGT969zEmQALhGAOfBI971V2/Tw3OWnj1VpH+5CBzTDAEWMwDCFwItc2FCco2SM4AdF57CDz0tVk2lQRCY2OjY5rm62NO7JKhwcFXKKXm+L4PjI39Z94LfDQwwTTNXVLKhxzH+WZHR8fjB3Miv3jx4nNs0/pOuVxOcM61B8LzPEgmk4YMw//0wuAjmzdvXr948eITysXyhzOZ9IW+7y8oFos6YRy/9GqEIcyYOaM/8P0HLce5pbOzs7N227W0tMwCKS8Ow/BiKVVTEARcJ5wLAX5YySWJx+M5zvnDSqkbe3t7/3Co23bRokXtpmFeaFvWO3bv3r1YCGFKKfUzoiviGI0b/z2WiPuGYfzZ87w7MpnMg88888xYAmf4PmiYDw4OfoNzflHgeUpXWdBxb3hVFmu0Z1V+X4VWvRs3DAiCQCQSCXzfHUEQfOYgRJJobm7+K9u2V/mu92op5axcLqefGQQBcM71zzjPWCyGi7Sjvq7u0VLRvXPeonm/feSRR/Ym8IwNmjc2Nl7tOM7VruuaYRhK27bRMwGO4+BYfy6l/DB6BpYsWbKYM/7RwPf/PgzDuaVSST/fNE3ANbAsC9chC0r9h8Gt63s29Tx9qOtLrycCRODQCZBAOHRm9I7jSIAEwnGE/yJ8NOYcrLeTV8sZMz79fNE1XTsGEs9dh7LAUnXAJKtUK0LzS/+1w7wDCbxqZ0lgYKiKB6FdDd74zDnNn3gRTvOAQ2pra5unQvXhUqm40nXdeWhcoaE38qoVC/izxHNrpbSRjv8dj8fXCSG+KYS4Kzr9H+vhixcvfl/g+XcFnodGn/5CQxONumQq9aTB4D0stHOh4X3RNMyVzz//vJFIJPTt8LXlchlY9WQ5n89DfX09uJ77oKnUJ3q2bOnF1zU3Ny+0hfmPg9mhlb7vW/h+NDJxrPpLVKpToWFbHf9aIcQ13d3d/34w+RCnnXaamR8aenvgBx8NguBlSimO90F2+IX3jQz2WqMdn4kBaiiwkN3cuXOzruv+/IXXf37Dhg2bxluwk08+OVEqlX5ULBb/DqQa9hKMFHKRkT7WvfD5oZLD6zdnzpwHpJRXrF27FkPa9KsbAAAgAElEQVTGRr1WrFjR4HneJa7rfsh13UYVSr1eyDWadySAcO6GYQCKTFwrx7Y3JJKJO4yS9b01fWv6D7ApRWNj49dc170imhdyiu5pmuajc+bMed0LQqneK3s3AqgLNVMph/cG8sd/w/fjGJLJJCgpH447yWue63zuyQN+KOgFRIAIHBEBEghHhI/efKwJ7C8QKmUrOSagYvAIHsbp/3UDzHQHgcqcHusVOnbPe8udv4xvnHXyqp12/VeyXokrx4SyDIFbMQBlgAzRRVD9E8fxZzzkrhh8kem8VyB40K6GJqVAOLWlZdbuUulazsVH8DS51tAbz3ugOXAOru+BZZjADQGD/QOQqa97PhaLfXTdunU/HW81GxsbLwzK7vfxhDcIAoXGH55kZ7NZaJjR8JhbCq6UKnhtLOZ8ZWBggKOxGY/HtbGJJ/P4KcV/KxQK2ijE7+l0GkCq293Qv6bBb+CFeO4ThULxM/h7NDCjE2V8FoogNByFaYAMQm0s+64HiVTyCSHEpT094580a3HQP/R2P/S/ks1mm/HZ+Az8wtNuHCc+A69ar0EkGCobievnloslsBwbkonkPxmm8Zk1a8Y2oBcsWBBLpVI/3LNnz9uRuxjh4TnQmkVrojNoONciBXlalvVj27avGksgLFq0qN4yjI+4vv8ZLOmF88T3owcpOrXH+yBbnC+uTeTpwe/4WtM0y57n32zH7Jt6enowTG2sizc1Nd3iuu6VeB+8cK1s04KSWwbHcv6r5Jbebgrz4kwmfWsul8MwKb3+6GGKPAiR+IvEmhYNAD+pt+uvfG7DczuO3V8behIRmH4ESCBMvzWf1DN+5eotsT878d95XJweiL3bV0hD24JaIGiPfUUgNA/2nfv4ylc9OKknTYPfj8Ab/73b7i2bH95tJL9QEFYS1z4AVe1tUDX/o6gNbdFp+Vi9T/QdhSUWPmXAXB+Wy4EbnzmnZVJ5EFpaWmyQ8jKDiy/v3r07pg3sqkEbnX6jURUZu2ikRUYvftens2GojVQ8zUdvANJJJOJPmkq9a01vL8aJj3o1NzdrgVA94VWmaSqlFPN9nyVSqT/alvlvZde7sFQqtUaiJTJ+0RBFoxQNcYh6U1Q9GYZhDJmWc77givmhvDOfz59QDYOCgYEBSKVSEMgQhcSwJ0GhBwTDgaSESly+87my5900XpLtkiVL/i+X6tuu666ITqnr6uq0gRoJETRa8efIUEYxVE3i1UxwHgo9DgBQRk+KbRcs2/lwR1fHfWN5MFAgxJPJHxbz+bcLLL9bDWXCNUIBFQmh0TwKrCY0C8UJvhcFgmPZOOcfc8MYSyCwtta2Twee+5liuWxZVaMdn6FDtaqhaJEnBvdArScFf8ZxVec8aFnmdcVy+dvj8OWLFy6+mXP20eje2qMlJRTLZZhRX/9fvu9dr4DfKZlqKeYLWqjga3BO+BXNX6+FYeh/q3ogBm3HvrSzp2c1/WkkAkRg4giQQJg4tnTnCSCgBUIs+VuPsTNIIEwA4Elwy7fc+WR8zZw5q/pj9V/Ih1I3QYuM4kMdPlcSOyMAcwNYoQZu+t93tFxzqPc4nq9funTpy4RS9+/Z09/a0NCgDT0M18FwjMgwc2KxLYV8fkMymSq6btkAxmZYptmey+VsNHijMI7olBb/27RtKbjx4e713XeMNb+FCxeuZKG8WwjB0IMQnTijQLCd2G5uiP5yqdQaBAHD30Xx7Tp8xxCVU2qoxLpHV3SqzQ3jt5wxKJZKf40iAsVEdNqNRju+Hy+OITp4io8iB70SVePSsp3HTMe6qKOjo2u08be0tKRfiL3/llsqnx/6vg6xwefs3r1bG+nV/VQ2TbODc7ELlAqBqXipVF4CAAujU3E0YtHzoUVLEOjn19XV/dov5C9et2nT86M9G0OMcsX8vdmh7Dm8qlVx/Cg8ao1pvFf0HJyb5lbrzajmCgBnUCoUUdR9M55Mfm60RN6lTU2v8/3g/nK5PBdDuQYHByGTyWiuGBaGxrlt24Oc891SSs4NA3MBKiCqYkGHpFXFnGEYe0zb+kB3d/fPx9gfvGlR4y2hkh+RUjItQKueEsxTSafTa0qe97swCD4oQTH0LCADHE+0J1HA4mtxbChctRhTqiJ2LfveptbmSw4yH+J4fkTp2URg0hIggTBpl256DpwEwvRc92jWmHOwKVl3uV9X98XnC0XLN+IQsoqxODIM5GBITWaBgJWBfNf/MufsajT40ICshppoI8q27VAq+c9xJ3F3tpB9PJPJ5DKZjNi+ffuiwAvOq6vLXD40MDAnMtyinAUdYsIYODHnB5ZtXzZWZaPW1taV5XzhbsMwWHQKPpzPIITU7gTGBBp+lmVJrGCD/6RzCATXBjkLKxZyFG8fraGsxoIJIYwo5AUNR7zQaMSwHu0BCSuJxPj82tNny3GKBjff0tnb+d+j7YMVK1a8xff97w7s6Z+DYip6RnRSnslkNvi+d6esJNNuicfjMpvNJjPJ5BmBlFcW8oU3YDkeNNij50Zekbq6ut2JTPptTz755KjJ0jq0qVR6r+e6bzUY477rSSceB991wcNwL8sBqdCrI5TreyGAWgYKlnG80A823A28YnRn8zmYUd+QtUzj/Ws7O/c7VW9buHAet2PfAgZv6+/v1+ONvCCW4wBnPAAOv7FN86e+lD1CCB76fpsCODfwg7OCIDDwOShWolN8nKvt2L9RAO8fo4KTFgiBDK/AvI4ojCri6ziOV/a8klIqg4nmoR+E1bwZjTUKH4vEH3pO8MI9gCFs8+bN+322WDj/QPkeB/M3gF5DBIjA6ARIINDOmFQESCAc3HJ94M4nzU3+jjeZ+f6Nv7r2vX8+uHe9uF/1tnserluTXLgql575xYLvQgnDLUxMSq6cLB7ONUIg3Py/72j5+OHc53i8Z8WKFYvcYuk3g0NDyzA0JjpFx1NoPNWeMWPGQxIUnvKuHzk+LOm5acOGT7wQu//5SnvpyhWFm2CYTjKZeogb/P2dnZ0bRpsfehAgCLUHoTYcRouEariQaZqhDGVHKOWvTMPsAyYdw7DOMCzjbwcHBxO2MPZJpo5OqfH5eKGYmDlzZp8f+L8qFcrrYjELpGInhyo8R0pZhwIh8lxE79UhKY4TCm68p6u3a7Q8Ct7W1vb1bdu2XXHCnLn6NB09CFFIVjwRHwh9eU3Php7vjSEuzujfvecuAMCyq8NhTijKcCy2bZe4ZV7S0dHxo7H2BYoE3/frs9nscCZ5jeeCQbGIgiGAZDId+uENQeC/A8VV7Uk8EsIxxxJxMLhxp2EZnxot96Fx4cJ3CS7u9X3fjERWlJTePzgIixYufDhfKq5cv3795trxrmhe0VIKS9cFgf8PtRWdolAjznnZicc+3dXV9bVR5slbdA6CtwpF4j6ej6og9IKgUqHINHpUGD5oCLEOecQSyTMFZ+fkcvkE/h6ZYoiRTmpnTAtEKeW6dEP9B7q6un5/PD579EwiMB0IkECYDqs8heZIAuHgFvPMn/7lbcpJ/JRv7X7Hw5f9zb8d3LtevK86+77fJLZnln28345/ZpcXcpcLANMGpiqVTg73mswCYcmSJWeZwvj5zp07k2hI4VdUKaahoSEfBv67ezZs+OVYbFpbW18iPf/Xvu/Prc0NQKMTjbdMOvOk4nBJV1fXqAKzsbFxpfT8u/DENzpFx/tEeQ3VUqRP1DXUf6xYLP5P1OwKy54yxj4opfyk9Hwskz8c41+tla/zCPBn0zS7JairY7HYf0eejLa2thRj7GPlcvmTfqls1YZJDYcYOY5kjL+/Z33P3SPnf9ppp52QzWa/v3v37rOx1C16EPDC96IRmkgmv5vOpD8xTs19dmJ7+/eGhrLvw5PtKDQLx1FNtPWZMD65tmPtLYe7L6P3tbW0nFcue7eHgT87OsWP1gpFGOZLzJ13wuOe5104sjws3mPFggUNor7h7uzAwFt1aFY1HA/njN6EuoaGHYYwP7iua90/V58Z2QT6Q9Xa1Pr6IPR/5fu+HSUqR/PFfZJMpx4xDOM9nZ2d20bMlTc1Nn3N973LRwqE6P0ocBzH6VIMPuY4zn9GVbMWLFjQELPtzwZBuArDnbQoKJd1qBGKA9wXqVTq+ZLvfbCnp+dfj5QxvZ8IEIHRCZBAoJ0xqQiQQDjwcr3hB4/9TafZcINhWCfP79/2pt9+4NW/PvC7XryvOG/1Y7F1sYXX7GSxTxVAWT7GK3MLQqkAMFn1CK7JLBBaW1tfzhn7GFOwKJQyIYSoL5fLM4rFIvZDeDppiDd3btky0nAbpnXikiVzPCZ+UCjkz8JT2si4R0PZ9X2oy9Q9Z5n2JX9Z+xfsi7Df1dTUdFHoenfpGPNqfDi+CA1ATHzmnLuxRPyyzs7O/Yz01tbW5UKIe7L9Ay/HUKOoxGUUxoLvf6EiT1aYxke6u7sx4XdvZjkALF++/ATP875bzOb+Vic6V0+lo9NtqyIQLuvu7b5z5MCxrwLn/KMA8BqDCafsuRkGUIcn+oyxIObYF3Z0d495+o/3a1zUeIWU4c1MKXNYFPm+FmnoNXF970sbN29G78xhX42Njcu4Yt8NwuDVmIQdhZBFYVwootJ1mW25XO4jW7du/dloD1ratPTVismfZAcH56OXSSc1V07g9Vc8mXjU9f23bt68edQGZNpLVS5/x3O9N0QlSqNKR3ifmbNn7clmsxdv2bLlX0Y8nzU3NX3dq3gQOAqpWhGKYsW0bf+F/g9fPP1lL/vqAw88sM8HubWx9SWShT8tFotLcZy2aeqQNFxfzLGpq6vL+YF/+YbNm3Fv0EUEiMAEECCBMAFQ6ZYTR4AEwvhsX/uTJ964nqdu3WOnl9YpCU27Np792/e/+r8mbkUm9s5v+eWT8bXlustUw5ybthd9UIYD2Jo3zGaB1aWwLvoRDaBWILTDwC1Pv73l6iO64TF+88knnzy7UCikURwIIWZJKTG5dEF9ff2zhmH86qmnnvLHGhJ2XDYYuzU7lF2JMem1SajoQajLZNYpzi7u6Oj442j3WLhw4UVCwV2YhFzrBdAnvkGAFX0eVj770IZtG/ZpfKYN7MZGJwiCm71i6cNRaE2UlKu9IJUOwU8K03jnWCFOLS0t/5QbGPxQNPbaSjsoEDgXV3T1dH1rtLG//OUvTw8NDTVIKTOmaTZUuyUvCoIAN9QDPT09feMt5Utf+tL3ZAeH7igVCklM9sW4+EgkGYYhU5n0jX9+9tlPHUwvhtGeg83UCtnsF9yye3WURK7nVw3diqr8mLb11Rc02Rc3btxYHu0+p5x00lWDg0NfYUrZyDXqj4HGPd7PiSdu7ezu/NhIARbdC701MgiucV3v0xjihCKlNpQLS5bOmTPn87Nnz/7yiIRhtqRxya1hEKzS2q3qaYm8EJiMnEinnzVMAxPJnxpFxKV9z79ZSfl+5IqhXDt37tRlUKueGmlY5sd61q+/9Rh/5OhxRGDaECCBMG2WempMlATC2Ot41n2P/fWG+Oxv7jASJ3mWAxmvAM3bu17/xw++9qHJuPrnrX44+ZzZctkuJ/XFrOvbYNngeQwMTG7lEgJVqdc+fEU/j9M5eCSHyS4QjmRd29vbk6HnfaN/T//7MAY/OhnGe+IJfiqVWhfI8JLe3t7HRntOa2vrRUHZvcvzPBbFtkcJtFogxGK3CUN8Zqx6+UuXLv1U/85dX64N8UEPAhqy+PxELH6vk4x/dKxQn6ampq/lBgY/GpXHrBUIdiyGjbMv7+zp+faRMBrrvQsWLDg/mUzekRsYTESVhtD4xpCfZDIpmeA3dXZ3f/JwBQKGFoVB+K1yuYzeDr02I0K3wDDM3zhx5/I1a9aMWor2vPPOE08+8cSPfc8/T2KuQiw27EHA9WJClGOOfcWajg7MtRgrTo8tWbLkEt/17owSTSJxgvNGgZDJZH4CAKtGdHBmzUuW3FoNE9ICIUomx3kgp7oZDb/wfP/do4kbzNEo5AqrBgb6b9F5Haap90VUDQvf78QT123ZuuWzE7G+dE8iQASq1cEJBBGYLAQWrH4sNhBf/ogL7GWB7o5b0bjTvQ/CKd//w9mlmYu+sce3l5WEDb5QUBcMQeNA7+ufWDn5BAJ6DnrKdVcN2plPZYUZK3MDQsWBVwMRGDYw4ArCMe2ag9vRKBAEGi++hJPY4C1PvLVpUnkQxpglfihGGnzszDPPFD09PWY6nc74vh+3LGue9PzPDg0NnYUGY1QxplYgmMK65LmO50YVCFGIUXSyjO+LTohzhQLU19d9tru390tjGZ+LFy/+WH5w6GYUCFHX3Oj9WCs/lUp/NZDBmKfjS5cu/YJXLH02Mlj3uYdhKNu2Lu3o6vruwe0E/arRuOk/Ly0tLYZhGJiskJJSYgjX+blc7hNcVjo0RlWYqv0TlGk7N6/rXIc9NQ45QWbZsmUncanuGhgYOAO9I1FIEa4RujcwAb2hoWGnF/jvXr9+/Zjiv729fa7nej8r5POvQgO79sJwoXgyWeKG+PuOjo4x81TwPa1Nre8IQv+BcrnMo4Z1kVcDO3EzxtbVxWLveLarq6PmGZFAuEIb9jVdvdF7obsiM/hyd2/vP462PufBeeLxBY+/T8rwO7XlXaNwLp1Ynkrf0Let79pDWF96KREgAodAgDwIhwCLXnr8CZBA2H8NTrvzP16zZ0HbLX2hdarFUxAqBpL7kPEGYGH/5rOevvg1/+/4r9zBj+DM1Q8nd4nFV2aTs7+QDUJexm6/WMoUrSOFvY8rBpk+MYYjz0GIBMKJbPBrT761CcMtJv2lS2nm87OEEHMAYJHnec0A0CKEeIlhGAvRqC8XS4bB+cxisSiiEKFo4pUk5fQ6wc0DCYS7I6N+FIFwTXdv701jwWxpablqYNfuW8YRCNf2rO+5Yaz3t7a2ftwvlW+sDcGJmpoJ01SmbV3adWgCQT9qxYoVDUEQzArD8AQAaLZtuzUMwxM9z1sai8VirutiWdc6wXgCS5NG84/yKCzLUrbt3LSmcx0ar4ckEDDsy7GsLxbzhSvQkMYT8+gLhQHmhqRSKT8M5a2z5sz69HghZC0tLaeCgnsL+fxJYwiEAhP8LZ2dnQ+Pt+Hb2tpeG/rBLwuFQhzzACIvEb4HBQKWLDWZeda67nW/qxUIGGIkw3AfgRBVIUqlUiWp2Ie6ervuHevZzY3NF7pe+fvjCITr+7b1oZeGLiJABCaAAAmECYBKt5w4AiQQ9mX7qnt+/6bsgpab+kKzfUgJkGElcdcxAerKWVjQv+OsJy9+5aQRCCgOnjcXXhnWn/CFHcWAe0pAyDgELKx0yI4uVamJj4Jhn38/xK1X60GYCgJhxYoVLYVs9nTbcla8UFr09FCGp3DOM0IIC+vZI56orKduzmVZUXda/R3DQPDCrsB1dfXrBBOHLRDq6uqv6lnf8/WxlqSxsfGjuYHBr40jED7as75nzBjz9vb2j5Vy+ZtQ7OAzoth4bbAbhrJM+9Ku3oPzIJx22mmZ3MDA6cCNk13PPTUei72MMTYvDEMbS28yxoyo+g4+J4rFx5PxoygQWFtL2wc93/1S4HkNOinXrzRfQ0McczXyxSLMmNHwYLFcvvJAeRLLW1vPCkJ1Z76QXzKGQMgywd/U2dk5ar+GaN1WLF1xRqCCn2WzQ4uiLtxYbhXzRLAfBeZtzJk58x3Prl1bm6jM2pe131osFrRAqO2DgGV40+n0oFL8/HXd68assLa0eekFxVLhXhIIh/hHjV5OBI4SARIIRwkk3ebYECCBsJfz637wyFl9qcav9XjqRGmnQema7FjxQ0BQzMMc5cLCXdvO+tMkEQiYc7AOFn5kT3rml4YCBSWMImJORQdwDyTWpNStZwUACgRtF6IH4fATlaeKQMBT72KueA4T7FzB+V/t2LHDwYTO2rAhDFEZGhrSXX+jajZRHX8UBtGJNfIuuS401Nd3cGZcfIAQozE9CHV1mY+Ol0R6wBCjTPqqnp5xBcYnWCivj0KM9hMIjn0wHgTevHjxK5gQ7wZgf5fL5RYip6i7cFQ6VsfsV7smo5Ec9Yswq9WbovCmKMTocDwIK1asOCM7NPT9MAjbY7Zd6csgla7eg83EcEyZ+vpukOGlvZs24an/WCFR+jOzYsWKc72ye3s+n58zhkAYAs7O7urq+p/x/nqvWLHiFCXljwf6B5ZH1a5QGGGeCM43kUrKwA0uWL9p/Q9r7sMWzFtwq2GIUQVCJpPpBwbvXtPR8Zuxnj1//vwLmAISCMfmf630FCKwHwESCLQpJhUBEgiV5Tr9rofeWJi5YPUmSCWDZD2YIYfCUD84dUldy50bAma6eWjas3VSCIS33PlkfNfcuVftNOwvbg9CVmQ2gOkADxQIpkCyAEIRAmD/A7ykgarh6HoQ+NDXn/y7JVdNqg9EpeTn4qGBgc/G44nzPc9DT8GwJyAKuYkSaNGwjUqJNjQ0yHzldFy/HktPRgm3mANQX1/fYXBzwgTCvHnzrnYLxZvG8iBk0qmru3p7x+wlsGzZsmvL+cJXo0T1Q81BwE7Uruv+g21aXxgaGmrEk+0ohEbH+0t9Oq4TaqM+Dyi6HMfxPc/T5U1Dv1Ikaj+BEHNuXrPu4HMQTjrppPpisXirDMILsIynFm4K9HropmZCVw/C/grXLGpcdPuIikGjbtn58+dfGHdit+bz+bojEQgnnnjiySqUP+rv718xUiBUmuJJ6TjOpRs2bMBytpFaZ+3Llt1aKpWvQIZRNzidaO37mNjcLzl7d8c4AqG5ufkCt1QmgTDZ/iDReKcMARIIU2Ypp8dESCAA/N/vP/a6XTPm3tKnjFNKZh2EAQPOlPYcYMiz4gzKmMioPFjav+VFLxDOvu/PiT2ZWVdsk8Z1Oa5EYNmgjDj4qAf8AGskQsgDkMM9Z7VLAXOUQR7hX7B9PAiTUCC0tbXN88rlL1iWfcnAwMBwpRg0ZLGUJBquKBhNy3w+Zsf+zAB2BFLu9Dxvm2M7lpLBhUEQtEfVYaJGWpUQo7qDEQh3jZWkfCAPwpIlS67O9g+MKRDS6dTHu3t7bx7rL1tLS8u1fqmsBUIU9oM/RyFGB0hSZmiAlkvlG8IgmIMCCg1XTMKNvAPIr66uzmMMnnBdd1M8kdghw3CjW/azhiH+JpTh32N1oKMgEMTixYtX2rZ9ezFfcNCYtwxTr9vepO0SNDTUf7/oeZ/cuHHj9oP5a3/i8uXv9Tz/G7l8vn4MgTAInL3hoDwIofzRwMCA3idaUFZDjFBEmbalVBC8f1Nf3z21AqGtufVWL/BHFQjpdLpfCT6uQFixfPkFQ0NZEggHs9j0GiIwAQSO8H+vEzAiuiURGIdARSAse9gF/vKDqWLUMrDlnD9d9OqfTxWor/jBo2fuSZ1wx3Yj2ZZjFthGDFzXB9Pm4KNBaMRA4ql7PAYzgyws2dV51p8ufPHmIGC1onXe3I+oGenPb83mrcCMgQIBYbYMsVRan56GHCAcroIiQZcmrTZICzgDyWqVw6Gt9GQWCC0tLTZI+CQH9elisWjgqTeGCWEIEXbJrTYQG8ykM//mltwHTeE85dQ7z0eJrW0zZ6bCdPq+UqH4tii2HOmhUYrhI+l0ekIFwsKFC68uZnOHLRAaGxuvhSDcx4NwsEnKS5cu/b/lcvkO3/XacfegKEBRhfkZuOeSyaRSSj0RBuH9dZnUQznX7Y06QSOjlqamD1mGeVuhUNB5HWN4EK45mN146qmnnr5r1y4sNXoKeg2wKZopjOFkYFyPWCLW6bruhRv7+kZtWjfac5YsWnKeYYpvjhdixA3xpo6OjlGrVEX3xBCj0A9+ks1ml0Uepkgg6HyCuowMw/Ci3t7e2qZluopRGMrhEKNIyFVzEPYowd8zngdh9uzZF1iGSQLhYDYRvYYITAABEggTAJVuOXEE9hMInOk6IWOVOZ1KAuHV9zx85vOZE27ZymMv9Z06CMEAQzKQvgfcFhACAxEaWN8cfCWhrtwPbYO9Zz9+0YuzUdp77/tN4snkiZftSTbcOOQPgTJN8DwAYSbAxATIIADGMUE5EgEMQKJACECoUJ9kTmeB0Nra+leB59+nwnCxDuPgXIuCQqGghBDYmyDHufiisM17Ojo69oz8VC5btmyGCoI7hwaHzkFxEdWpx9dhAmoqlRpXILQ2NV3kud6EeRAOGGK0dNm1bqn41XFyED7Q1dWFhvc+Fzb/CoLgttxQdiX2BsA9hYYvnthHoUWO4/wzA+NLHb37N/HCm7UvW/aBwPNvd11X1w+tFQiGZanYQVYxwjXwfO/LSqpLC7m8Lv+JggXHonMPXA8s2979Qn+yL8zbsPiOR+CRisviIK6WlpazmVJ35vOFxjE8CDluiL/r6Oh4ZLzbLVu27DQZhKvz+XxTVO0Kx6iLijFAT5WaPWPGP6zt7Fxdcx/W1tp2q+uWx0pS3iM5G1cgUIjRQSwyvYQITCABEggTCJduffQJoEDYbS992DfMl4cYY4J9EKaBQDj9nkfP7J/V+N3nVaKlZDo6eRGr9yCCvdfek3TJFcx0B2FFf9/Zv73oFS+6Tspn3rPB2Z4WV+22k9flDYsHKtQVURTmFWAJU720lT9PlTCi6twwT1mbJpVQ5yPxHui7KgkcDcRAwUk8d+sTf7f4o0d/1x79O6L34IWuyXgCvjKqwY9PYYwpKaXuaWVZ5k/tfP6Stbt25UcbwaJFi+od07wjP5R7pxOPac9BdAKPp7yYg8At8+Lnnhu9D0Jrc+tKt1TEuPN9OuyisYx9EA4YYrR48dVDA4M31aUzukpPbSdnfcqcSl7dMU4OQlNT07XS87+qPwt4UFD1flRzKpRlWh9Y17O/QFiyaMlZ3GD3FPKF+VEJ0aj8ZiXUKlyfTCcvGa/85/Llyy9GgVAqlZwoERyNZ/Q+2DFHMcZu6u7uPlCZU9bU1HTNC52ovyCD0I6ERm2nYtz1lhP7nmLq6vXr10pk8yYAACAASURBVA8dyk5qamo6gwO7u1AonIjJ1DhOgwudV4ElU2fMmllgpvHOdevW/ft4921Z3PJKycJ/DoJgNr4O3x/NtZobIYUQb9ywYcN/1gqEqMwp7qkohyPKQUin07uZ4u/p6Omofc8+w1i0aNEFMgi1ByG6or2Onp66usz1m/uozOmh7Al6LRE4FAIkEA6FFr32uBNAgbDTXvpwOI0Ewku//es3DJ7Qdv1WiL3Es+tBYU8AFQCEgS7oUzF0a8QBkzpuHwVCe/+2F51AOG/1c8lnjYbLhzIzvzLgewyDvHVt9dquyNU+B/t0Sp6A3TdZBUJbW1tbEAQ/LhdLp0alSashHJFAGLAM+z29m3p/PRa2E088cY5XLN2fz+ZebznaPtUiQXtmggDq6uvWMWVc/GzHs38c7R4LFy5cyaXCKkaHJRCwilFuYPDmwxYIjU2fkIF//SEKBLG8bfnHdu3a+eVYLGagoEKBgwnaGJqVzWahoWHG9dl89rpt27YVx2KH+ROMsRu9sqvnHuUKoMi1LAsNZhQI43ZSRg+Q73rfkVK21XpBIoGgy9DGYo97vvf+vr6+Zw91+7e0tCwQwFYPDA6+sj6T0aIg8HztpRDAgBmirEzx/s7OzvvHFQiNjW+wY/Ffbd++3cBSq+hlwf2Bc84XCzBjxozNAPDW7u7uZ2oFQmtz862e569CwXokAiHqeVIVwPq5JBAOdTfQ64nAoRMggXDozOgdx5HAdBMIp33/D2e785u+s6fMF+eVgBIDCLC6oZUECLE3ANo36EmYHALhzNXPJXex5JWldPoLW8slHpgJCFHwjLgi7wEJhNE/bMuXL/9b13XvKhdLcyzDqIR7VASWFgic8e0Jy3hlx8aNG8f6uC5fvrw1KLm/LhQLzVEOQmSMoQGYTCY32Hb8fc8898yoISjLWltXloqlYYEQCYzIg1Bfl7mye/36b4z1/EggZDIZFIh46s6i9T4oD0JVIESiplbgCCFG9SCctOiketcufz2XzV3gOA4KA2nbNg+CQIdlYWKyMI33bdu2DRNux7waGxu/7XneB0U1/wVFmq42VBW2Mdv51kk9XR95oFKHd7+rqalpEef8tnKx9NbI8I3eW+PJCYUwvpypz9y7e/fucMaMGWXbtnNPPfXUmMKl9kHYLG9g957VuXz+bViWFMOpMLcBhYJtmOAGvrQTic/1btDdrse8mhsb/6FUdn+EfNDDgmIK8yTsWEyXX43H479kjH2oq6tra81NeFtr29dLpeKqSEDus7bp9C6m5PkdPT0H9CCQQDiO/8OlR09rAiQQpvXyT77JTyeBcNb9j71ufWr+bRtd2W4aCWCmAVKEwOwYlMsSwLABJIYkTw6B8J77/5R+1pm7ajDV8LkBt2gWMKQIk5KZzvMcviJxEBl8E7lLJ7EH4WJMsg1dz0CjTVW9MJFxaRjG80lDvHTtOBVvlrUse0MYeg+Uy+VU1PgrYo8GOuYwWLZ1UUd394OjrUHjwoUrVdWDgLZ9NfxDnxZjiFE6nbly/cbxBUJ+cOhmTA6OBEK05vj8ZCJ5ddeGscucNh2GQMCqT6VC6X7G4DW6upNpSsuyeLlcVoZhMEzyzqTrzu/s6ayt6b/P9JubmzHU5oeDg4Ovjzsx/TtcAxwzCgUUV4lE/NepTOato3U6bmxsdBzHuSqXy13HFOgys7XiIKrEhGLPtMwnpZS7BDcYZ1D0PD9nO9ZOQ4infSmfjcfjG//yl78UxvqMLG1p+WQYys/KIHC0ZyKo9C6I2w4UyiVI1md+MWfu3HeOVTYVxwpSXsG5+IrrulrJowcBBQJgLwQsDRtzbuCcf642iRudms1Llnzd94PLlVI88rLg+6tJygcUCI2LFl0YBOH3xxYI9ddv7ttMnZQn8g8k3XtaEyCBMK2Xf/JNvioQ/js0zFdM5RyEU+76f68ZaGj89pBMt0EiA56QUMoNgJlJgV/yALgJwLEXQOWA8sXuQXjl6sdiXnzxx3ebzmd3uoFwMafAsPbJIThWXoPaXT9ZBUJra+sqz/NuU/4+PQ+w8g5DA9AwjO2xVPIV69at2zTapxxPl/fs2vNFDuoTL8TA65yFWiMVjVz8bzsW/2TP+p7rR7tHc2PzyjDw7q7mPKATA/9/clgCIQxDyblOJNBehIkSCHhyLwP5MyH4GdX6/Mr3feY4jnJdl2EPgoaZMy7s3bChtiLPPtOfP2f+mxOpxO2FQn5x1CgtEgi6QIDv46n6c9wQfzPiVF3fZ1nLsr/OFrPfM02zBQ12rAhUu/ejk/bo31DIRLH7+Bw00EGpXCKZHGRcPFUqFX5sOs4fRntWW1vba/t377nPNs35Ogk9CHUoFfZ2QDGUyKSfLnvum7ds2bJttDVuW7hwnjKt27PZ7NsxNAmFlGmaDL0Ru/bsQYGVT2XSH+zs3E9Q8eYlzV/3fe+wBQLmIIR+8H3cFxGLKAcBG/7VZ+pu2Ni3GfM86CICRGACCJBAmACodMuJIzAdBMLZP/r9Wd2pBTfs4IlTQxkHN5QAtgKwBbBQHzlCmCviUZ4+xXuxCwTskNwRa7r8eZ64rqCk4TIBhhkHTzc62CfLeu/GifIRqonKE7WjJrFA+IDv+9+Wns+jHAQ8ha+ePjMhRL9tW+d29vZix939rvbW1pcEwB4oFwot+MsoFj8yxFBk4FcskfhNIpX84DPPPLNfqFJra+tKv1TWAkHni1fWSo8nm88ftAeh2tlZZ1ZHliAar4foQdC5BFG40VghRkuXLp1vcPGjbdu2/VVdXR34rqssy2JR4m1lDuofF27adMMjGM034kJhNTQ49E9Dg4OXYM8EDN2JknC19wZ7e4chGvGDlmlfPponoqmx8QYvCK7B3AkUGNEVCYNoDjgWNOTRMI+8ClGuA/JBIYKf/3g8lrcc52nXdXEt/mXz5s0D0T2XLFkyJ5lI3jewe/fZ+F7HsnWIEF64TtwQ/bFU8uq1a9eOGlK1vLX1rCAIf+F5XgLnZZqmQkGpO3EHAcyYMfNxxdS7Ojs7N4xAxRsXNX49DIMPK4XRWyIKgdPjTqVSuySo83vGCzGav+iCUFYEQnWPaqGE8yCBMFF/Eem+RGAvARIItBsmFYGpLhBeevdDr83Obr1ze9lqKRlxUHELZOAB2CbWEwTgDgA2D4sblXAG13tRCwTMOegT9io3NfPzO1xpKSsGAeYjl12IJePg+t7Yzc5QJJBAGPXzuXTp0rf7vv/doOzOiASC7pJXMVDx73poWebdJd+/cmSy7WnLl5/gAnxpcGDwfZGhGL23ohWYDlmqehHcZDJxdUdX1+0jB9K4sHElA3kPGo61DbIwVOdgBMLChQuvKmZzt6BAqHoQ8OFa8WKjtkQifnXvhg1jdlIeEWK0j0BgQijTtD7QNaKK0dKlS2eWS+XbTcN4Z6lUYtixGI1mNDjR8BSmAal0+qnQ9z7YuX79kyON3va29ndlc0PXh2G4AMuQsmpjNv3eah5CZMzatvPvAUjsD7Azug9Wn1Jh+NNiNffANk3UFGM28tClTn1ff2GYTlQxKarsEyqlw5uGclmYNWvWYBiGK3t6ev6lZtxswYIFlwjGv+n7vp1KJLToiNmOFgplz4V4PPFITLB3jQxHQ1YskDfu2r3rIhRTePm+r3M1tJjh3DcMcV3vhg2YwzBS6fO25tavF8ulsQTCTgnqvYcjEHAcmKRMHoRJ9b9uGuwkJEACYRIu2nQe8lQWCK/53u9et7Fh/te2GYmTmciABwykEQJIH8BwANCTgIe1eKDGfF2/PbItxgoxWjG49axHjlOjNGyC1u3PumIwNeOLuwpF00gkwdOHlwwsk4PrYmM3sVcgHANBMPKzM1k9CMuXL3+p7/s/LOXyy/RJcNWTFFUgqoYZFU3D+kzI1YOu6+6qq6vDWPCTy/n8xUIY7y0Wi7qGv2EYmNgcnfBWwo2qsfT4s2maf7Ec+0MjG2o1NzaulGFFICilwurpPyayHo5ACKuhJDrM6GAEQnNj8zVh4N0QVW/CuWCIVXX8yjSsS7t6u75bu+YYU28Zxmey2dyn0PjGWHoVSt1BGS8UrCiMLNNa7TiJG638QEe/acqUmZrNLXh7Np/DkJnmKNcAE8Tx+bq8qW3rsJ0o3t62bQ+4+FyxXPxGX19fCe/f1NSUsQzrhzt2bP9bNLpD3x/+EOO4a0t6Rh6FKPkZQ4ui/gj4b/habGiH372gIiIaGhou7+rq+lbtnNva2pZ4rne373lnoqDRXaOxvwI21gt03kQ5EYvfWfDdOwzD0J4Axtj8oFy+TCn4kGEYcRQTOOdojNiIb9acuY8JKVauW7+ue5T/J/Flbcu+Xsjnj5ZA0AsbebhIIExnK4DmfqwIkEA4VqTpOUeFwFQVCGfc97u/ztY33bXLt5vzhg2eKQAMXhEB2OcB20YzqbsK4/fhq3pu92ITCOetfiz2nDXvqj1m8vM5YRqeEqCkAI4169GQ4woUk2N7D47KbjnwTSarQDjppJPqy+XyfV6x9GY0aLWxq5Q2bmvLnpqm6Uoptzm27XpBwJWU9ZzzWWjwaQPT9/X7IgO5WC4rLGWJhi5aY1XvANQ3NHxnzdo1l6FnIqLa2Ni4koXynqqnQf87GuiGYfDBbBbq6xvGTVJGD0JuYPCWmTNnYrOtEE/CmRA64DyXy0Emkx7Xg4ACQcngBh3u4nmYbIyZ0hjyw+LxuAqC8NLeDb37CAQc47Jly95VLBa/E/pBEj9flmFWjGXP0wYzVlUaHBxUiUTyeQawg3EmXdedlUwmT9jd32+ikYox+FgSNRGLDYe9oOGNp/O4FjgmNOaT6dR6CfCODRs2/DkSCG65fL+S6s0YrsOUkp7n8XQ6reccvRfXB3/Gqkr4Hf8b1wUvLWAsSz8D/zpgBSZUfuiFMW3rik2bNv3TyBP9tpaW83P5wh2c84Q2sqXU4ULobaqG/ARSyi0AapNSGmOjlHJJ9Hy8X9WLwXCenu8NWbZ9xTi5GrypsfFrQRBeHoahiMViqlAo6PyUau+Jnabg7x2vitH8+fN1DgIKTgyBQ89FFAq2c+dOmDVr9g0bN2+kHIQD/5mjVxCBwyJAAuGwsNGbjheBqSgQXn7Hb87qP6H15q3SPhmMDHjcgEBgCVP0HphaIOhABJDgC1kRCDVlTfE3LyaB8Mb7/5TekJx7eX+s4fM5pUwfOIRKAJMMuKyUgvRR6Ogu2KNWgTxm22uyCgQEtHz58r93S+Xv5LPZNBq1USgKGpJoPKJxh6zRIENDH/8t6piMybgoDBoa6p/NF4u7HNP+q2KpaFiOM9xRuOoZgFQy9YcXjtk/W81nGA4lqeYg3IPPDcMwRKMZvQClUolj6EtdXebKzu7uMcucnnDCCVd5ZfcWDPMRQgSe57FYIsEKhQJHIzSVSl/d0dUxZojRokWLrgn94AZM8uWcS91LQAiWzWZZMplU6VTm0jUda/YTCJiHEIbhXXt27X7DnFmzoFwsaaMbjdd4MqHDV5Ahzgv/HcUT/qxZVnsAAEA+EY8/XCoWzpBSzY2qQCEDLCNaPW0fUAxuqmto+PYzzzwzGAkE27Lv39rX92YMrUJDHe8beQTwPqZpBmEYbuWc7zQMwzUMUwSBj4b9wt27d9djTkIkRDAHAdcU17O+vj6UoD7S09Ozn0BAz0Xoh18yTeNSz/NMzJ2o7f2gE5YTiUriciIBKFZ0l2kAzWJoaAiFI64NCpayZZg3h4Ld1NPTkx3jw8qbm5q/5rnuqiAIMC9FVcUPGxgYwHCoHYIZF4zbKG3+ogukqjRKY4yhkGJ4DzwiQYEwb+4J1/dsXE9VjI7ZX0t60HQjQAJhuq34JJ/vVBMIL7vvD6/15rbevquslg8pDkVhVk7VLVP3ORCBqQOUJTDQVZvwzJAHNRG/4ycpH+sQIx1WFM64wq+b/dXN2RKEho1FWKtej6rnQ//VqTTmqgiEGo/IMd6fk1kgYCfkuONc7/vBxcViUWe7olGHxiIatZXOuVwbrPgz/hsalmhQVg3RLsnZNSnH2bp7YPCfwjA8IxIQaCiigDCE+C8r5lzX1dX16MilaW5uRg/C3Zi06rmuLwwDPQ4slUqJPQMDGNv+kc19m28ba0kXL158Vf/uPbfMnTsXRYkfhhKE0CVrBI65vr7uYz3r139trPc3NzdfE3j+DWiMu66LRjXD8VuWJfA03YnHLl23bt33Rnv/okWL3ulY9s0De/YsREMdBQmKAZw3GrN4aq0FQqUilP49Grb4rFQqVRaMf1ty+FbMMN4jFXwum83qUp4Y8lPJR+DbE4nU9cIUd61du3a4k3VjY2OdZRg/GhgaeiMa3gYXnpRhVim1tlwuPymE2GIIsUtY1nYAGFKe8rBMKJjgsDCcbVjWXCnlHD8Img1h/B/f9xdIKbUlj2Ovn6FDjPYTCPj7RYsWNdmWdV0hX/h7wzCETnyuhCgpZJDP5ytZ5hiy5Hl6zl4Q6KRkFA0oOB3HKXief++cE+Z8/umnn941zsdVCwS3XF6VTCb5wMAAZtDj+yuVqqTankzELljX3T1ml/f5c+dfYJji3qrQDaqeFKygJCp73L6+b9s2EgjH+G8mPW76ECCBMH3WekrMdCoJhNf96E9nrU8t+MbmUrjc4pauSuRZBoBjQ1hygXELeIA9DgBCxqvhOGhuo0GNngSsmoIfYf6i8CBgn4O/xOdc1p+e+f/Z+w74OKpr/Tt9ZndnZ6skyzIYbGxjmsH0kGBCDwmQl4AJEAihB1MSSHv/QAgQSA8QOilg2sMpkJeEB0noJQmkEuJQHBAuqltmZqfXv87sjlnLu9JKlizJnuuff7K1M3fu/e7d3fPdc853ri6aDmO4HsLw6imkj4M0KwwVxk5ACi1CfpBLu2nI1FbepZsQBEK66ZWP7HTZVh7CFj1u/vz585Dv3+DYzsc1TQsKWYUyllVZSycM6aiG0FRj5D1BSL5o2fY1b7399lOwmRYtWvRfnuPeNDAw0AVEIjg99tHDBCKvWbN2zepGg9x5553P0ivKj8Eoh1Nw+AkEBAxM3TQRx7GXrV2/vqkHoaOj4wrHsr8d6OrXhTnBaXogc5qIf/6t//znO80A2mGHHb5km9YNYMiG6j7wE0J7BEHwTdM6f+36tZt5EKA/SBY2DOM8kiCuNFQtD+MHvGDuITkKlHdqEqSQxAz1GjiO63V97zbP8+6C5OMFXV2zMZa9RVO1E2shP3ACv87x3Kuy2ewDw+sgLFmyJGVqxn0lqfxhhmH+hbn+oySJP4lIcg2GYQPDagk03RvgEXAcZzaGYUtogvw4hhPLVFVJUgy9oru7+45mN+6ywy47I8r7gmXZZxiGwQGBDPEDQzybzQYEE4zxILysRhYAU5bj+oUk/yOSpm969dVXNyZeN3rWSQgR/5i/4EZd11aEErCBPCtCgXcilUr1MxR7xmuvv9a8UNrsHc50XPse8JiE3hzoC8YCfeRy+W91r+3+4ha9gaKbIwQiBJoiEBGEaHPMKAS2FYJwwH3PHLmeyfxgkJ61EE+kEOWZqCIVEJ3KIMu0EcI40ItEHhRCq4UUVdMPqh6DwOCeRgThqJX/iIvZtiv6SfqqfsvBDcQgjGQRAZJFyEMOJFtD2BQk0wIxsCHkCA9yETbJqdjKu3GmEwSAa9GiRXMVRTmf5/mPyrK8EIx0UOYJlW/AcIVGUZSVzWReM0zrfxnk/eRfb7+9NoR72bJl5Pq1688Yita5xnGcDtu07qVj7Nferrtm+NJ0dXWdSuPESvBewOk7GG+h5CckOTMMe3732u67mi0pqOv4rnc3GHxgjAIpASMV+gHjnKLIi9f39GymnhT2N2/evEts07oJ7ofrq0ZjDkECbTabdUmaOuett966Z4TncwzJHI+Qfx5O4PtompYKk4zDWPewHkQqk16HEHrRtm2IiX+m3pDfeeed98B97NqKUjkhwSdWszR91b9ef/2RJq4xYv78+ad6npdDCP2aZdl3V69eXZUiG2ebP39+0rft91EMdwhJk4+89tprw9WXNum5q6srE2fjy3ECP9XUtaWapkFsWIA/YAkNCFMtDwUIp4Rw7K80Td8ty/Ivh6tiNSMIf5qzw7Wu43wZcjWgb+gvJAuZTKbXdp1PrF+//tlm0543d94ppmU8FN4fJmgDoan+m/18T19PUwI5Tjij2yIEIgRqCEQEIdoKMwqBsRKEXaQN//WHMw+GL+tp0w754fPH9LZ33ljkhIWixQVq6zjpIIrEkAv2MsKRrZoIMVzVqA5SEcFLALY0GRjUkOALv/eqqpBT6kEAKVOVy128DpHXSr5L2BSNcCKGfCAzTrXSs03CJGultCBSyoF8hGoeQhBSNUVtWyAIAB3o82uattRxnA9gGLYj5qEsRmAx13ZBJ19WNbWfJOnXKYZ6/p///OebjYxXOFUnCOIEyzDyHBb/+eru1RDm0rTNmzdvvmva/4XjeModCnAnSRqyX5FuWISQSoq6af6yu7v79WYdzJkzZ55jOR/mOKbdtt1AxQgIMUVRhO9jCh/jf/nqv199rdn98+fP38217RMIgsoahuZxXBzChDDM9wmSJiXDslatXbu2ofejvs/Ozs4dGJL8ABeL7SVXlHaGpiCng6jIFZukyKJlOe9iBPZyIpF4OcwlGD6mRYsW7YE89GHHc15as2bNcw1kP6doh4+8fgxOHW459r6u5+7ie/5OPvJnOa6D0qn0OlVR30KY/xbFMK94nvfUmjVr1o9lErvM3eUAjPQ/pOs6RdOsB2sTJKJjGGE5Vi+O4w93j1Dpu62tbR5Nkh9zXZ8nSciv9zCaZpHjWASO4wWMIB4baX+NZazRtRECEQKbIzCFX83RckQIjB2BmU4Qjrz/lfetT2TuegdnFxsEgwgygVzLQThDI09Tq8pFEBfMsYEEqGNZtXyDaqhRtcEpPBn8ywOigMFr70mpw+8wzEc5U0STnYOw7CfvsBsSxAosk/pWj6JiFsUiB4KgKgaiBSE4GQ5U+YHIBDWoqsSG8N1a6BQQhKYy8GPfIGO8Y1shCPXT7urq4jAMS8diMQaMKs/zlH322af405/+dGozwse4NmO4nFy2bFn18meG/i5D6JlnnoG5NqnC17hnCIt5Y96eWYK2OcVxCM/zbN/35bffflsaw1hm3KWQF8FxXJdruu2e72UgFEhW5YFEItFL0/SGV199Vd3CSQ23M4LCelvQZ/BJsgX3R7dGCEQItIBARBBaACm6ZPogAAShwCx4yiapA4OkXZDs83FEQLgKnF8GBnPVEAUDeTp5EI6+94XD1sdyN3Zj7J52ug1ZVlXRx7dchCiIyfcRAWUOcIRscCvA6TtRVTGC71M8/E6EifoQzwv1ENzqnGsEoWpqe0HozmQThEDKlNrh/AE2dY1iSTzOsEh3cETSsUCtCMIzqh6CIPkgCC3CfR9hAYVwkQ+v+bBmEUGYPu+waCQRAhECEQIRAhECVVMqahECMwYBIAglbtFTJsIOdOG0vVaENDxBD46laqfqWVNEC8TpEWJ0yH1/WDaYmnPjeofdy2LjyHYtRDJ01YiGFnoA6mscbLYq4aEbGNt4bebV+0MjvOplqHoQMpaIdlP6jnzmtP1/P9ELDGpFb3rtFxXI+LUqQTOO7yLXh2Jb4CnAID0iID/vhQ/BmKuj2JhkvXHcEz261vvbFj0Irc8+ujJCIEIgQiBCIEKgMQIRQYh2xoxCoJ4g+AQo+2wagz8dCcJ+dzx+jDJ70U3dNr3AZAWECBp5thF4CrY0/p6ACriB56RKlgKnCoTx4D4CgrRY3XDkM6cdNKEE4YhVfxbWUW2XlPnclbLjUVa1OFXgAdnYauovYTXY6brJIoIwXVcmGleEQIRAhECEwFQiEBGEqUQ/evaYEZhpBOGg+186XGnb8RbRIheJDkIGjiEHJ5GPQx2AWijtiF6DkSFqRhBCD8KuWs9Rz556YFOt8bEuAKgV9STSl1mp5Fd7VIMycRbZeCDBv0kLqrVWK+uO9RFb9fqIIGxVuKOHRQhECEQIRAjMEAQigjBDFioaZhWBmUQQjrznxaPW5ubc8R/V3YmmYwiRBPIIH5EMixTNRxjNIN+tyZiOc4GrBKHek1L1IEwGQfjkyn/E/xpLXCzx2aslQ2N0z0ceHUMeXk2YDltIDiKCMM5FjW6LEIgQiBCIEIgQmGIEIoIwxQsQPX5sCMwUgrDvfU8vK/BzbhGd+G4okUE24SFVKSE6EUeWYSGcAOlxEjl+LQdhbDBsvHpTgoAH0qEYqARhbjUHQes56skJ8CAs+8nTrJzd5cIiw13fb5qsCSpKJI38Ou/BTPEa1EMdeRDGufGi2yIEIgQiBCIEtmkEIoKwTS/vtje5mUAQjrnv+WVvpbtuHqRSexgmgRwfRx7lIoylEO55CHN85ABJoOktzkEAAzdI+8Wqp/jDCcJipefop04/sGm10lZ2yEfu/HNsXeesFWs98ioDJ+IOQSDExJDteMiHQm6NWhhaVAs1auU5U3FNRBCmAvXomRECEQIRAhEC0x2BiCBM9xWKxrcJAgFBYBc9bWLYAdMxSfn9q14+tCfe/u0Bg91PJ2PIZXHk+1BFGCFkguwng5BpIioZRz5ykQMSp1vQICm5mugMBAGKj4GM6HsehC0lCAeteonrIzo+g6c7vr5OUhiCSSLT9ZBnKIhIJpHr2c1HDyRhJhEEvHLjK8fv+NktWI7o1giBCIEIgQiBCIFtAoGIIGwTy7j9TGI6E4Rj7vvDsjfibTf1Uok9CSqNVNNEKEYiBGFELsT+EAhHVJUwwK8NDSESkpXH3wKCAIKngYrRxBIEkDJd48xa0c8mvqK6Pu8hAnkwfoQjgkTIca2g3sLGNgMIwXCkN/EgRARh/BsxujNCIEIgQiBCYJtCICII29RybvuTma4E4YD7XjhSTM/51oDJLTHYONKh0BlLI+SA/CdCGQvbiQAAIABJREFURM1R4AYxQNWwoKBtochPI4JAhEnKdgntrvYe8/vTDnhirDsD1IrW86lLSmT8qzLJMCYikOthCHP9oL5BdVJ+tUjbDG4RQZjBixcNPUIgQiBCIEJg0hCICMKkQRt1PBkIjJUgLCr1fOzFsw76xWSMJexz39seP6Kyw8Lb1lrULhgpII9ikIF0hAgodAB/EaLgJ/KQTYJqkR9UFa4ShC2rIjw8xIhw4Xz/PRWj3bUNYyYIR618Ir42vuASKZa/puL7pInhyA4qIQe6pRuLoGE4BEltWYjUZK5LK31HBKEVlKJrRkJg8eLFCVEUjzAMY0eCIByCIJBt228Ui8Unt/wIIMK+FQSy2ewi27aPgA9ZiqLgw1V2HOdFSZLebuX+6JoIgQiBzRGICEK0K2YUAtONILzvgT8epuR2vLlk47uXXRzpOIlcIAaQEuBhiHAJBFWe4Zx9o/cAqxnVgfcA3oLjJwlg4FaLpFWTlMFTUU8Q9tL7j33i1KWPt7rIkHMgsrPPNxK5GzaoFuviNHKhf6xejhWeR1W79NyaR6TVJ0yv67YTggCbDLJgYMfBVtxCv9WUr2FYeGNasNNcLtdJ0/Sq3t7e90HdDyAIHR0d92zYsOEceNtvZbRgrev/wnpPlJsv/LDa2nMaFcJZs2ad1tvbez94N2EN4vF4P03TZ5XL5f8b9eboggiBCIGGCEQEIdoYMwqBqorRrs+YCO3fSpLyZHoQjvnJ88veye10x380dyFD0cinKGRSFEIsg1zNQBhBIRzykn2E7JADBCE59TbaRBAEMAkgqQHfjCAs0nuOfebU/VsiCJBz8B8jc5mYyl1dtF0KcqoRwVQTjTGr6vkIQqRIhDy65lEAW2Gi7I+tvxW3RYIwd+5c1nGcObZt7+q67iyWZTt1XU9TFFViWbZXFMXeRCLxb5Ik13V3dxtbH/VxPxGfPXv2ARiGHQmsmiTJx7u7u/847t4m6Ma5c+d2iKL4gCzLHwTjlCRJlEwm7ygWiyu2FkHo7OyMWZY1h6bpRRiG7axpWlssFmMty+rDMGw9RVF9pmmuLhQKfeMhiJlMZnE8Hj/GcZwsQui53t7epxBCIygUTBC4LXbDcdxJtm2vchwH0TQNf9fSNH1OqVSasCKRLQ4luixCYJtBICII28xSbh8TmS4E4bB7nju8L5b73rtkfk8vmUKUp6OKXES0kEZWoFZUrXPg+WBYQx5ClSGANyE4eMfC79YJJAhgzzv4Jh6Eheq6Dz17+kGjnqKBlOlgx6wVAyT9tQ22w5pUrEoOvGrIkgceBCAHwfAxhNyaByGQWZ25bVsiCJlMJklR1KGu6x4HRrTneV0YhpGO4+CmacKpKnJd12MYxsVxvEwQxK983/8/HMefWrt2bXm6r2JnZ+fBlmXdQhDE3rquI47j/sxx3Lnd3d1/n8qx5/P5DhzH7xdF8XDAOZFIIIZhtgpBgDV3HOcghmFOoijqQ4ZhpBmGYSuVCvI8L1hzz/MciqJsDMP+Ztv2T8HALxQK/2iVvHR2du7AMMxt5XL5ONd1YX7v2LZ9SaFQ+PVU4l7/bEEQTvI8bxXMG1osFls3RIzOUVV1iySep8v8onFECEwFAhFBmArUo2eOG4ExEwSp52MvnjGxOQhHPvjXQ9fHkrf3E/FdRYxHno8hDDMRxxDIAZFRF0OO4SBE07UTd7eacwAH8FBgLCAIoSdh/OFFVf0iHzIOaipG+GYEYbHZ+6GnTtlvRIIAnoNeb/aKXoy8VvRs2iIZhLFJ5IBzwKmGFlUJAsiW1geqQOjRzP4I2VYIwuzZs/eyLOtc13WXa5qWMwwDURSF4EQVwi7AWAwbjuPB/+H3LMuKDMP8jOO423t7e/867jfmVrixvb39K7IsXwvkANqsWbNgDhf39PTcshUe3/QRIUHo7+8/HC5KpVIQZjTpBKGtrW2e67rnIoTOKpVKbSzLohAbWHvbrh5CQMgTrDd4NwRBAOP5X7quf4uiqF8MDg4qo2GXTqePZRjmsb4+cD5UWyaTuRnH8a8UCoWqRT7FLZFInOx53sMwf5hnLpdbb9v22ZIkRQRhitcmevzMRWBmf7vPXNyjkY8TgbEShIXl3o+/9KkDfz7Ox2122yEP/WFZf7L9W+/a1H4WGUMkySLXBcsfR75lIZwikBfUOeCRBym8dhiCA4nJYXcEQkAUAmM7VDUazwhDggCH+hCWXQsxCsoP+EEl5QVa73HPnbbfY816X/aTd9jBLHOhHmOv7deMuE0xyHJxhAwbMTE+qPQM3MbDQyID3hAPUZ4bfBF74CUJciBmZtsWCEIul1tKkuS1AwMDx8IqhMY/rA80CLmwLCv4d0ga4DX4N5AEeK2tre1527b/u1wuvzBdV7Ktre2bhULhC+EcM5kMEJwv9fT0fHsq49xqIUb3S5J0OBjjQMqy2eykEoSurq75qqpe7TjOaXBqDmFNIRmEMcD/eZ73RFHEYZ01TQvWOhxfKpXqx3H8Nsuy7lAUZWCkNc9msycYhvHo0POCy6DvXC73E13XL5ckaVp4noAgOI7zMBBjaNlsdr2iKGebpjmZBIGJxWIZ+PSNxWK+7/t4PB7XZoI3brq+x6NxTS8EIoIwvdYjGs0oCNQIwrMmQvv5IMYftKpCUGA4BOl5YHT7KG1IaPdy78efnyCCsOy+55dtSHfe+o6FLyYys5CpmAinyKDGgQehQ/DFjPygzgHY/x58WVFQ5wCM6vq8UBgkxPDDz4lP8iU8SFkGgiCjncXu414865CGBOGkVS9xr9NzLi0kctcOVgokwTHI9CmE4TSKYSTSwaigcOQG5ACwDmSMEBjVhF89nXQxIiIIU/iu7ejo2M113e8XCgWIy0fgHYAwEDhNZlm2nyCIoqqqRUEQel3X3dGyrASGYSkMw2aLohgYjSGRaG9vf9lxnBXFYvGVKZxS00d3dXV9VFXVO8vlch7Gnc1mB1mWPWP9+vUt5dhM1pzAg+B53v2yLB8Op/YQ1sPz/O19fX0XtxrGM5axwfMsy/q6bdufDk/M4X4gBBRFrfM8r5tl2WdN0wQSsAhCkAiCaIccBUVRNpKJdDrt0DR9ZX9/PxCsponH7e3texiGsVKSpCVADmiadjiOu6RYLP5wuuQh5PP5kyuVSkAQYG/E4/H1NE2fXSqVJo0gtLW17ex53p2O4ywmCMK1LEsjSfKacrn84FjWM7o2QmC6IhARhOm6MtG4GiIABEHiFj6rY8R+Hk4Fsf1QOThQ88FdBIff1URahFK6jJaU+0565swDf7alcO577/NHiLmdvtfjxfbQCCb4EgKZz4AcBJ6A2il607oA9bH6IBk62vWtjBj6IaqeCMgXDJ/tI8R6COUNCS1S+4/73RmbexCgzsG7qdyKQYL7qkbQnOO7yPUhDKHqjYB85Gq9g7BSc50HIcilCAnZzPUeBAa17yHc8xDp+GiPGVYobfbs2Vld17+tadpZEPseniJzHPcfiqJ+RFHUb13XXTNr1ix99erVzuLFi8lisUjZtj0Xw7DDwMBUFGVvWGcgFQzDQFz/z3Ac/1ypVFrXyg7cmtfMnz8/Kcvy8TiOH+Z5HkEQxJMYhv28p6dH25rjGP4sMNh937+vWCweAWSL4zgI47m9WCxeAkF6Ezw2IpPJXIYQ+k6pVNqogDZ0gr4ax4nbOY7+Dcdxvd3d3eAygncz0dnZSTuOM8uyrNMty7hA04wOksSR43hI4JN9HMtc0jc4CLkJzRrZ0dFxpGu7H0K+xyMC/wuO4w/39/eP6HmY4HmP2J0gCCdblhWEGNXI0nocxyc1xCiXyy2wbfvXkiTtAsQc1j6ZTF4gSdKdW3Pu0bMiBCYLgYggTBayUb+TgsBwgoAF9QXAqK1W9fVq5AC8CmldQnuJvVtMEA68+3fL5FmLbl7r0nuoBB9UEsYxPyAIU1sH4D25UcIzkQ+5AiCx6nuI9jzUrstoN7V03ONn7L2JB+HY+/+YXJuZf2EPxV+nui7pYH41Rr3eywEEqO50eVIWcxp0OoMJAp7JZD6F4/jNhUIhHpIDlmVfZln2elEUYc1HVJnJ5/Pv1zTtq6qqHg6n3hBCkkwmvXg8fnlvb+8PJuP0eyKWPJ1OC+l0Gr399tvSRPS3pX1sTYKQyWR2I0ny3oGBgaVA6DCozo4T7yaT8Sv6+voeGWnNQOnIto3lvo++UyiUIDQGkTiBEon4CyRNLy8UCj0jYZHL5fhMJsO8+eab4iQQny1aBkhStixr1dYkCMlkcheCIB5VFGUxeI54ngeifZ6maXdv0WSimyMEpgkCEUGYJgsRDaM1BOoJgo9R1RoDmFerMVDnJfcxlDcUtLjSe/KzZ+w70unYiA8+5KFXllXyc27sk929FEQil6GRA2E1OIM8y0SIhBP8KVTygfh/HyEmOKf0kEnhgQcF8y3UritoQXnguOfOes+DcNKqpxNr8fSKtWT+apVNM6pb87oMQyH0HoThJ62tzsy7aqYShHw+Px/DsB8NDAx8ICRymUymz/f988rl8q9aXYlUKnUYhmE3lcvlPQKejWGQZPtPkiT/a3BwcE2r/WzP141AECY8xKizs/OiSqXyXUVRGHhv0jTrMgzzHUHgv7Z+/frq8fkIDYx817W/US5Ln2FZGnlOULfBzLXll69bt+6Xo90/XV+fCoIAHgTTNB8dCm3aFfI8wHPked75iqLcNV1xisYVITAWBCKCMBa0omunHIGAILALn9NxYl8IMQqLEgeqQBiEi1Tl+iFmPmdU0CIVCMLe4yIIH7rnxQ+8nuy8ab2LL2GZJPJJHJke1DdgkGljiIzFkQMkYUoJApz8I5SwyKCgmU5jCBFwcGyhnK6gPXTjuKeXLww8CKBWVPToz/WTiWtlIo2KhhfUbvDxTT8GQnIA90QEYcq3fMMB5HK5Uw3DuFtVVciODIyToTD07+q6/hWE0FhqG4An4rOe530HchIgVCIWi9mxWOycgYGBldNz9tNrVLUchPtKpVIQYgT5H/F4HEKMJpQgLF26lHrrrbdWyrJ8CiAARinDxNYmEtxJfX19L7eKSjrNH2Lb3gOKou4A73yO5UCM7FuxROLaVlSNWn3O1rwukUic5Lpu4EGAz69kMrkBIfTpyVQxAoKAEHq0UCjsCnOF9yCGYedrmhYRhK25+NGzJg2BiCBMGrRRx5OBQD1BcCAHIdjBVclQSAkgIeTIx4PkWUjSXahsOPmFcRCE/e5/7vDB2KzvKnhmL5uJIwPZyFQkxGXTyLKcIPY/UC8Ka7pOxmRH7RPqEtiIcHHE2QzyEIE0Gqo4Qz6ChpKmhuZL+rF/PXXR48tWvZYwCPozA0n+mrWqyeBUEjmQSY1j1RyK2unx9kAK6mGdiR6EuXPnplRV/XqxWPxMsPs9D4yT//A8/7GBgQHQtx9Ty+VyCzVNu8e27QPBuIJwiXQ6DYm/y0ulkjymzrbDi9va2tpd171/sglCLpebhRBaWSgUjoBaC5BwnEym36Bp4oOjhQfVLwuMV1WVGxzHPss2qzK4giD8naDIkwcHB9+aiUsIBGEoWXhVmKS8NQgChBjhOP5IpVIBoYBAQta27XM1TYPk7ahFCMx4BCKCMOOXcPuawGYEAVwGQV6yhwgPD0KOIEfAwTGUMRW0UF2//MVPLlk1FpSOffClQ9/kZ3+/j4jvbZhUoNKDJUiEkRhyTQthjod800Z0IoEsd6JzEMcyUhch3ArmzVgccjGo5AwhRjZCuIbitop2Z5JH71AUnnyT7LtCY9nr33Ys3IX6DLaHKC6+USt9s6eG+QgzvM7BaGjORILQ0dGxn67rP5QkaU+YH8Q++75/Vzwe/1x/f39Vi3JsjRIE4UZVVT8DUpnQQCHIdd2jRFEcqQhZoBlWJzEaVslo9envyY+9V2FjpHvrM+XD7656ebBWnwvXkZlMpoOiqDRJkglN03CO4zSKokSKonrWrFljttrZBBOEQGahUYw/hJV5nndvsVg8GDw90Fg2/n8sS50yFiIHxdU4jvnihg29/w0V4C3bQu1t7chD/sEDAwN/aDDvEPfhWI8HezyXy7XjOJ6nKCruuq7jum4Zx/HeBnsXjl/C+M1wvRvGc9YTBMAmkUj0YBh21jAPAjFnzpz2SqWSd103zjCMZdt2mef5nlbCs4bjkkwm5+u6/ojv+7vD+wbHcTeZTJ4niuKPa9fW21fjwarVLRhdFyEwKQhEBGFSYI06nSwENiMIoOkJspsuQkSNHEB1ABfHUNaU0Z7SuuVPf2ppywThkFV/PqSXy9/cbzJ762QM4TyHbENHiMQQMiHnIB4oFxFs9TvTrRlUkzXfkfsFiVQrIEWEywUeBBeSlJGLCExDrGuiuULuU45uxjAmcWO/otMSiSPPdRECeVbLqBVYa/IUIAkRQZiapR3hqel0+hOGYTwI9Qvg5BISdn3f/5QoiveOd7DZbPaThmHcrmlaHOom4Diu8zx/6sDAwKNN+iQ62zs/jAh0iq7rXjqdxjVNe4thmJ+8++6774w2jq6urj1937/M930a7icIgkkkErd1d3c/2+zejo6OwxiGOd0wDHao7gOoGJU9z7tt/fr1/xzteeHr7e3tbYZhLEulUss0TVtEEETMtu0EQRCkbdtqLBarKIryJsMwT+i6/mylUimM1vd4CQJ4BEiSPGeowNeuvu/bvu8TJElaFEX9ct26dZBHsokx3NXVtYskSStN0zwwrGshCKlHaJo6Y4yhQVQsxpwXi8WvqUgKkUwmwRth0izzCUmSnho+35122mkh8tFnTNPIQ1F13dR9hmV/1NfXB2vVkuE7d+5cVtf1g33fP8YwjL2gfoBhGDEgCAzDyBRFve37/q8Jgnhqw4YNRciV8H3/rKECbftbluV7nmeyLPtwT0/P7xqtx3CCkEwme+E9USMIdDKZ3Jum6eN0Xd+f47iM67oQmmcRBCE5jvMmQRCPlEolmE+zPA4mk8mcTpLkB03TNDVNc1iWTWMYdqwsy3GoL1ELL/sDRVH/hArmtm0zDMO8SdP0yr6+vu7R9lH0eoTAdEMgIgjTbUWi8YyIABAEkVv4vIERSx2iFt+DVQkCHLz5GCQtg5GMoZwhoiXShuW/b5EgHLvypUP/nWj7bi+ZWErSGaRaNkIcjpBrIYTTCHk+wkBWFSrTIgshMLTxqYwxqoYYVZkKxKBXx4IjF5HIQqTvIJ5jV7OxxOKefgXZnh9Ud8Y4GvmajBALnoT6xO5tnxAM31wz0YMgCMIVQ0bJt8EgqYWHwGn3saIoPj3ej49kMrmf7/u/rFQqsyC2HYhHMpm8UhTF65r0ieUyuculivTtsGLv7NmzX3Ec5+z+/v5RDfZcLrfMsqynZVkO8h5gLjzPnynLctO8h1wudxqGYfeWSiWiRowqHMd9qKenZ9TibhC/v3bt2iNxHL/McZz3l0olNsyvCU/j6wvM8TyvkCQJMqrfLJVKfxqpENs4CQKXyWQutG37u1DoDBooUSUSiV+RJHlFoVB4czju2Wx2NoZh9xUKhcPC6+PxxGsURR49lhAj+HDs7OxcoOvKPAojXYJgMNM0fZZg/91T7gF5202MfijE59rOI7Isz/FAIY2iERePnSmK4n2tEIR0Or1DLBYDdZ+zy+UyeG0Cz+Vw3AVB0DEMWzmEw9WmaVo4jq8URfE4mOusWbMcx3HOHRwcvKcVglDzIHySpumXZVn+NMMwlw7VctgZTvphncMxhAn+yWRygCCI7yOEbi+Xy43UschZs2bd2tvbex6MG0h0WJQtrEwO46pXfoP1FAThT5ZlnVmpVN4Y73szui9CYKoQiAjCVCEfPXdcCABBqMR3fb7i+ksRGSYp12oRBAEPNQ+9h1CHJqM9Cu+c/LvzDx41SXnfe/9whJrd4eYBm9lVpVhkBLXBIJ+hWgGZcPAgGdmFZ9TCmoIJtHR+Nq6pjn5TrSBcdRxQEwJ0/REiPPCh2EEdNkhchnyM6ut1tRcCYgHel5ldx2B0kEa+YqYRhK6uLs4wjOsLhQJo4QdNEITXcRxfXi6XXx0vHoIg7OT7/lOVSmVuaDinUqkfiqIIeQ4N5VLz2fwlsiLfBDUYwDDK5/MvDIWKnN/X17d6tHGk0+n3w/OGCEhY7RAIyemyLD/Q7F5BEJbH4/E7e3p6BLgmn88PYhh2QpOwmI3dAGa6rn8aIfRlURRnA7mob8PlfOsN2Gw2+xqGYVcMDAw80WxcQBAcx7l/qAr1xiRljuPA0GyapJzNZk/0ff8WSZKC8dQSa/9IUdTFhULhz42e1d7eHvd9/8HBwcHjYY3AME0mUwXbNk9TVXUiCoI1DBHL5XL7uK77oCRJC8G4BuOYZdkR1yocP2Bjmub1NE1/enBwMKjkHOIP4w9rcMD18Bok+jqOcy/DMD+AsDlFUfaBZ7a1tSmWZX2mRko2g4fjuJNwHF8VVnvOZrMbLMv6im3bO/A8/4XBwcE43BTKAcO/Q8M+/BmLxQyozF0qlW5rsOfJXC73g0KhcEH9HMJ/N5KEht9lMpk/YBj2qUaEb7T3SPR6hMBUIxARhKlegej5Y0KgniCAmlBQIA0Mdzg8DwkCGO1AEHQRLSmtO/nxc0YmCO//8VOH9ud3vrEPcUtcFEeq4yEUB4PaRsirGt5U4Oz3kA0hTYFqUVVedMrbxujgav0DCqKOgsgEPyga5wYejlpBNQ9HFNQ7wHxkE1ZV7imo5rz9koSZRhAEQYCY+e8Xi8Uzw72XSqV+h2HYOeVyee1492MymcxgGPbHIQN9l5AgCILwIE3T5zcLX8ln8xfLinxzHUF4Ecfx88ZAEJ4URZEKxzwaQejo6DhZluU7TdNMgZGZyWQGSJI8cTSCkEqlPorj+B1Dhl9baNCBIcrzfMm27fUcx/1VURSdYZj5ruvuFV4HOIBxKgjC3xBC50qS9JdG+DYhCLeVy2UolLZZheJEIrEbx3G3DA4OLgv7g5wPx3EukiQJijo2/WTJ5XJXOo5zDZxew1+eF5Dnuf/DsqkrisX1oNwz4a1GEB6QJGnRWAjC/PnzGSCYrut+T5Kqh/JwP6g8ua6rJRIJCQr5DRXmkwmCmG/bdqeiKDwY8RRFQTXiE0GlCwz4TCaj+L5/UbFYbOhhAoKAEFoFexGeEY/HTcdxVjMMs4ssy4l8Pm8ahtHnuu6bFEVBSNtCwzA6NE1jQ3ICz2VZ9g3btk/TNG2TtYa59PX1fQnH8dMIgrBN0/QYhhGA4Pm+j1clZ2nwhBV5nl8PfVYqFTaRSEB18usqlcpmHqEJX6iowwiBCUYgIggTDGjU3eQisKkHgUEYVP/FUF2BtPe+XvO6iBaUupe/ePahTXMQDl31tyNLfPstZYdcULQ9ZNMs8lgGebYF32aI8NnAfPYQhlw4ngfjG68lJgdf41NoXAeEqHYAG1YEBgIA5ACq4waRVvA6HgwbuA0BFZAxwKxa/wDmNaVzmNztMmrvM40gdHR05G3bvq1YLH68jiD8nKbpiwYGBvpHnXCTC/L5fMKyLAjHgHj44KpUKvVzz/POk2UZSvZu1rKp7CWKrtR7ECaVIIAHgabpO0ulklALgRpkWRYIwkvN5g2eEZqmISznfaF8bzweBwPxXs/z7qRpeh2GYRAD7ymKwtI0vZPneZfbtv0JCP0JT5yHEmtvZ1n28kbJrGMhCFDkDcfx60zTXAEqRNBmz57tlsvl6zs7O78+QnJ0cLrPcdwBsVjsJ8ViMZDWhPcuKBpxHPtNXce/qyh9g+PdA83uy+fzezuO89AwD8InZVm+f6Rntbe3Q67EfeVyeX54Xc378EQsFvuhbduvMQxTgHh+HMcTNE3vpSjKWSRJfgwkd+tP6nO5nILjOOzxhgQBchBs214FIUShRyYIBfU88EytcV33DoZh/s+2baj+7A+FdvHJZPIDlmV9cajA2mJNqxbjhoKBvu9fpWkahNZtQtR4ns+xLEtiGOYPyQnDl8AihmF+XCgUQO40uNdxnMtN07w3kUgQHMfhkF+Ty+Xk7u7usUgPT/QSRv1FCIwLgYggjAu26KapQmA4QQATN5Tp3FiPAD7WMR9lTQntVll3ynOnH/Jwo/Ee/sALh63hum4u4OzuvosQGYshBfoDI5qkEYFRCFlOELZj11RDAks78CBUDfGq22KKSAKEUwUhVcHRXC20qJrXaFfTMIJ6EIEZ4eKIgBSDgCA4yIfqyRjMAGROp2j8U7WJ6p470whCqLlfLBaPCKeRSqUeGFKCubRSqRTHCymE4SiK8htZlg8LqmpXCQIkjV5QLBYbnky359svFmVxq3kQ2tvbl/u+f+fAwIAAp9AMwwwwDPPREQgC2dHRAbHnQY0HMPYZhnEpirqBIIg7ms6rvb1NluX/R5LkJUASoGIxx3FrCYI4qVgsblZvoEYQwBA+MqyDwDDMbZIkDfcgYPF4/EySJG+WJIkP10oQhIdomv7c4OBg32jrB9WQh07jr7Ys6/NVIoeDURqcyuM4dm8yyd/a19cHIUoT5t+sEYQHRVFcFJ6Usyw7GkHAeZ6/Qdf1L0DIFng7UqmUR5LkL8ADUi6XX2s0Ro7j5vA8f52u62cA9mHoTi6Xq1AUdVFvby/kPWzWBEE4Wdf1h4EcwP59LwQrCSFiXyiXy79vEDaEMQxzhOM4dw4Rxp3gXrgvlUo9ZhjGOZqm9Y60HkA+Xdf9laIou8F1tX1ydp2K0WjLGb0eITCtEYgIwrRenmhwwxGoJwgeyVRfritUBgZfYC/jVYIwr7j21Jc//f6Hhvfzvvueef9AvOOuQbZzUQUjUZz0kTzYg+h8O/JwEjkqMAYwrmuEoBarD4pB1f6tqScIwdyr46kWiKvO3cc8BOUgNjZQOapJwAYF5Wp1I3zcjzwIoefF8dEeeOXGV47f8bPT+V3X2dm5g2maPy0Wi/uH40wmk/eQJHnpWKQuN3tfdXVxmqbdL4rif4UEIZ01tPZdAAAgAElEQVROP8Gy7Pm9vb3vNsKkPZ+/WJS3XogREATHce4qlUpJMBx5nh/wPO/ESqXSSJoTpFpnA1a6rh8Ep9Gg/JNKpX5v2/bpqqqO6G3p7OzcW1GU+2RZ3q1WPA5CSK4tlUpXDceiVYIAieAkSQbytGCMwmm6IAh/Nk3zYlmW/9jqvuN5Hk6u7ygUCocCQQDDNExYZ1n6tSHZzZ/puv4b27ZBonaLdZjHQxA6Ozvn6Lr+aLlc3if4mMIwIDGvcBz3qVKpNGKOCoR6JZNJIFhHwprBvel0WnYcZ4UsyyMSBEh+Dj1gLMv2Yxh2qa7rkIPWrNw909HR8R1JklZAkTVouVzuVcuywHMGyelNG8MwC2qEJ6iDAHssFoudXy6Xo0JprW7m6LppjUBEEKb18kSD28yQ2SRJGYqDhSflgdm+yfdA3pDRPnb5tCdO3hPiWTe2Dz70t4N748JN/WR835LFIUSziPB1FGMppDsOcgyIz6cQDuFGoFZUl8yLe2RASN4ztKfB6TsQgNp5YRBuBSQAr4U+Q+KyhyEMiqKBDOzG18MwqWkw/inc5jPNgzBr1qwdLcv6ebFYXFpPEGiavqRQKFTlcMbRQIZSluV7JUk6OUwiTafTv2V9/7xeUWxIEFLJ5MW6aW6JB2HMScoIobtUVU3CqXlHR8cgjuMn9vT0NAwxyufzx+A4fu/AwEAbGI3JZFLGcfxSURQbKuHUwwYeFVVVv6ZpWnBSD4ZqPp9/jmGYY4aHGYUEQRTFI4FcgcHOsiwYuJeGBnomk+nyff87lUoFSE7wqFgs1s2y7BWlUgmkZDfLVRhpGSHJ23XdG1RVf9+mSddB/D14S/7uOM4TJEn+1vf9v8uyXB6vVwEIgmVZD8qyHHgQwCMwVJhvRA9Ce3v78bqu36XrejsY7YlEAuRMv1IsFr/ZyvaEJGiGYW6tVCpJwDSbzcqu665olqQMHgTTNB8OlYVqoUy30jT95dHeF7FY7CMkSd4vy3Kyti4SSZKfkWV5k++N4ePmeX6B7/u/CD0IiUQC5FgviCopt7LC0TUzAYGIIMyEVYrGuBGBzXIQPBz5eO3EPFD1AWWeqn08S1PQ4v71p/7uogM2ehA++PCLH+hh27651ucO1Ik4YrgEMmQVEfEYctUKwhiqKmOKYwgnCeRtrHNQ7bfaIOkXiAJ85YYhR1t/kQLFIni+jyMPkUHth6BhkKlcUymC//s4wr1qpeVqRBSMufb6Jq6GrT+HqX7iTCMINQ/CLyaJINwjSdLy0ODMZDK/FRjmvHeaeBDy+TycfAcEAVpbW9uWqhidNpJRNmfOnOWWZd3V398fGHI8zw9yHNc0ByGdTn/ZcZzrwzAhmqbf4jju2IGBgf+0sO8IQRA+blnW/8DJMpwOJ5PJ1clk8sPD6zy0QBDiPM9frOv6DSE5yOfzhqIoX9V1/WaE0Lji09va2t7nediXdV07DgzjqvSmtvEEvWYkd9u2/c9sNvs7Xdd/VywW30YoOPVouTUhCCOqGOXz+et1Xf8y5FnUTtbfpWn65FqI1qgF9XieP5ggiJ+JogjVoyFJGTwIFzXLe4AcBNd1V4VeAJ7noX7FeZVK5ZHRJtre3n6AbduPlUqlDIShQaNp+spaHkLT24EggAcBCAKQIIZhfJZlL5AkKfIgjAZ69PqMQCAiCDNimaJBhghsrmIESj0Q8lMLNaoRBMpBKK/raHdDP+W3p+8U5CAcfu/TR/Qkct/cgMX3sfh2ZNggB4oHMasgmQotMLiRh1wwom07yEWoEoMw5yCwwOErpKYABMZ4M+/15K5bPUFwMRJ5UNQMlImCsdrvjQvConwIx4LXq3KtEUGork1EEKo4gAdBUZR7yuXy8jCGGwgCJCmLTTwI9TKnW4MgQJIyeBAURUnWPAKDNE03Iwh0W1vbXQMDA2eGya6CIDwZj8eP7+npqWakjtJSqdShOI4/DjUT4NJ0Og1G7vL+/v5NQk9GIAggc+qB8UqSJNQ7mAPjJknSpmn6bgzDrtqSvBEYUyqV2hHHqRMtyzxDVdV9fEimqkmGhkQP8hNq6kH/hjoSOO48Vi6r/xqptkM9NOMgCHg2m32sWCweXZdD8BfDMD6kKAokCY/a0un0IRiG/bRUKnVAH6lUCmSQVgwlPDdMjB4uc5pOp9dblvVpVVUbFlarHwCoSmEYBhK/beHvs9nst4rF4hdHGigQBCiwJori4lptBEgivyAKMRp1eaMLZggCEUGYIQsVDbOKwEGrXuL+yS18XvewpYhkqvH24S4ODXWQnHMRitsOasOwk944MfuzAx4rHiXZ5i0FD9tFhaQ5kkY+SIC6NeO+vkZAU7BDIgAGd11NgSlcnEBYKfimrwsV2phnUDcw8HhA2/iOnxpSM4VQNXx0RBCqsIQEQRTFjSEwQBAYhjmvWQ5CNpu9RFGqKkbQoA6C67rnjxZjDtdCiIzneU9KkkSFRmQ8Hgc9/6ZhHfl8HpKU7yoUCoEHAaRBCYJoSBDAaAdvgyRJQc0AQQhKJ3xXkqQvN6vrMHyDJBKJPMuyh1sWFDemMJZlNdM0XxpelAyeBQXM+vv7oRBboOXv+/6tmqatiMViS0mSvFtV1b2h/1qBt8dt275cUZRR60W0+H7BksnkvjiOf9hxnI84jrMEx3EsVOYJ6zrUcEemaUK9jNvghL4VgpJKpfZmWfbBvr6+RdAHhFBBRetmNStAipcgsF+XSuLBcH3Nk7GKYZizW634DAQBcilEUQRsRyUI9ZWU4fpEIrEex/Gza5WUR4RREIR5CKEXJEnqCD4iq/kS39V1/YqRbqwnCLV7YK7nRx6EFndtdNm0RyAiCNN+iaIB1iNQTxB8Ck7Fa/kAG3eyH6gOkZ6HSA+hTCJ5Do38dy0H3aIaxkLNc5BLYMghazds54XCtvfdFRGEKSMIh3ie99SWEoSh+PoTS6XSZjkIO+64405D8e+3Dw4OHl1HEL4gSdL3xhrvP9p7BAiC7/v3lUqlI2vJql48Hr/Z87zrHcf5uud550IOAzRBEN6xbXuFpmmPjdbvWF8Hkqdp2kLXdQ9WVfWEeDy+xLbtdqhWXS8ZCgZ7PB6XIFae47jbRFHsHulZQBAIgniwWCwuisVigWoSRVGQ6N2wqF3Vo2L9b6kk7g9kAggkz/PXC4JwXSOZ2EbPbkAQZITQRc08CFtIEHZCCL1UTxBisdj3VFW9PCIIY92F0fXbEgIRQdiWVnM7mEtjglCnZAQhNl61sBkQhSQbexi53hLHshcajlUNvqVJ5BJQXRhO0aO3wHawbZpOMSIImxIECDHaJEmZZUfyIFysKMrGHIQxehC2mCBkMpkCSZJQSXkzgsDz/EIcx++UZfnQmnQlnAxDiMrtrYbWtPq+CAnC4ODgkRDO4ziON/T8h8rl8iuCIHxNkiQBDHSIb+c47muiKN4wVNW56naZnIYP1W1oH5LgXOo4DlQYft+Q+s888CQAUQEvRy1ECwz9Ow3DuGqk0J8wxMgwjEWhtyiXy51eKBQaEoRMJjPH971Hy2UxUDACjwqO419SVfXGVuddCzH6ORStq3kQIoIwOXsl6jVCoCkCkXUUbY4ZhQAQhNfYhc/pCN/XJ+j3Qow2yQOoehGgMBh4EYAzYL6PbCiqRhDIpwjkQLx+oPcevQVm1AaY4MHOUIIAKkb7hlCAzClBEJeVy+VqudpxtJqK0Y8lSfpEHUF4HJIuRwgxmgqCcHehUAhqCABBYFn2hEYqRjvttNOesixD9eSDwBhOp9PwZr+wXC7/cDIIQhhiBOOCU3aCIMoQl1QqlRL1p/epVOpHrut+sZXQnnEs42a3QAXgcrm8xHXd41zX/WSlUpkLF4UF4OLxuIXj+JVDakHgWWkoiQoeBMdxHlRVdRGQDNgf8Xi8aYhRPp+f77r2L0olcQ94Dsx/qI7B5Rs2bPhBq+FdEIKGYdjPthJB2Bkh9GLkQZiIHRf1sS0hEFlH29JqbgdzqScIkIPgIXfTHIRwRwfynpB0jBCB4QFJ8IIKw3iQ1AyFwqoEYfuW+dwOtsyIU5xpBCGXy3X6vg/hHoeGExME4UHf90FRqGHF41bWGAjCUCGs/5Fl+YSwDoIgCI/SNH1hswJe2Wx2ygmCbdsnVCqVzTwIEF4Tj8fvHBwc3B8IQiaT8XzfnzSCYBjG/ZqmQdGtAO6QFIBHIZTehN8nEgmDZdlzmp2+t7JW47yGzWQyy2Cf6Lr+oVD1CPrCMGwNz/OnFAqFvzTqe8cdd9xbFMUHJUkKchBqOQVNCUI2m13k++7PSiUxKCAGsqtQj0BRlFtbDe9qQhA+Uy6XG3ottjDEKCII49xU0W3bNgIRQdi213ebm10jggCTDBKVw79B3YLq1AkfagAAScCQ43lBYTCoBYAIUPTBEHInrODoNof19jChmUYQOjo68rZt31UsFk+sGXcgv/lzlmU/09/f35JCTKN1hQq9qqq+KMvykrDQFFT4hbjvIT1/0NDfrDUgCM+7rntBi0nK4w0x2sSD0CzEqK2tbS9QPNoaBKG9vb1N1/UHZFk+gud5BLKq0MCTAInCGIbZBEEEydhw+s4wzNM0TZ8rSVIrcqsT+jaMxWJ7+77/fcuyDg09RclkEkHStK7rtzSSQAUPAkVRDw4ODi6COUBeAUEQTXMQstnsrr7v/hQIAiSHD1V+hj16qSzLt7VauK1JiFFEECZ0N0SdRQiMjEBEEKIdMqMQGE4QwJgJin8F1hIkHtRNJ1D8rBKAQP0zqBQEMp9AEOAnEIQtLjQ6o/CLBrspAjONIIBCDEhmFovFs+oIwuM4jkMF17XjXd9kMplBCP1pSGd+ftiHIAg/TqfTF3V3dzfU6Z8AggAqRvQYVYxaJgiO40CI0YEwn0wm4/u+DxKUEx5iBASBIIj7e3p6jgzXJCRZ8Xj8DZqmn7Us63hVVQOVnFQq5eu6/q2heP6rx1sDYbzrXHv+ibZt/1hV1TTkI4DHKJ1O/wbDsAtLpdK64X1DVelKpfIg5CBAiBGQnnQ6fXqz0/yaB+HnpZK4GPoCL4ogCJf19/eDB6GlD9wmScoRQdiShY/ujRAYIwIRQRgjYNHlU4sAEIR/xRY+p3n4voHMqV+1/DeShKAIWG2MwUsYQrVriMB7QAT3wJ9qi+Q+p3ZFp/bpM40gtLe3x13Xva5QKFwWGqOCILxFUdTJg4ODfx8vmqCn73neM7IsBzHq0Hiev7NSqVzYrAJvKpWCcJX6JOWxehAmjSB0dHTsBgShUCgcUiMI8L4HFZw7JvpNDwTBtu37QcUIyE5IeGKx2Lscx60oFArPp1Kp60D2tE7N6F3f98+XZfmJ8a7ZeO+Lx+PtQ2qlN6iqelaYi8DzvEjT9NG1QmabdA1JyqZpPlipVIJKyrWk46YehFoOAhCEPaEj8CJYlvUFXdchSRkqNI7amsicwvpFIUajohddECEwMQhEBGFicIx62UoIVD0IC54zMHJfD6eCQleBmY/hVZKwMcyoNqCQB9R+hg4Gb4qKm20lmKLHtIjATCMINcP987ZtfwviyGsKLxDCcnShUHi6xWlvdpkgCEt93/+1oigdcKIMMfQcx12nKMqVzfqESsqgYhRWr83n888RBHFhX1/fqPr+HMcdwnHck6VSqWUPQiaTORnDsB8Wi8WNScoIoRMayZy2tbXN833/9nK5fCTkBUAYDU3TnysUClC5uFpNbIJajSDcJ4riUSF2LMuWhgqi/T9Jkn4MYTvJZPJAx3EgTwE094MGIVy2bV+haVrPaEOZPXt21nGcg1zXxV3X9Wmahp8b2traXl29evWYKiPDob4gCJ8bkpj9OjwXcgqgJRKJY4c8Lo8PHwsQBNd1HyyVSkGIUU2NaaQchNm+7zxaLkv7YlCYESHA/6uiKH6j1SrO+Xz+ENu2gzoIcD8USsMwbNoRBKikXC6XdwNMAEeKoqI6CKNt5uj1GYNARBBmzFJFAwUERiUIcFGjXT2MIISeg41F1iJ4t0sEZiJByOVyp0KSa5gAC0mgCKEzVVVdOd5FFAThY7FY7J7e3t4EhJ2kUikdIXRGqVT6WbM+k8nkJYZh3ASn4mAg8TwPycIQ6vTaaOMAA1CW5d+bpsm0GmJUIwh3F4vFoFDaSCpG2Wx2tud5d5TL5Q/XDEwIpblKlmWQGG0pzGW0OYSvA0GwLCsgCLVKyRBW8z8sy55XKBSqCQkIMblc7iJZlr9lWRaRSCQgH0EhCOIKRVF+MprhDITHtu3bQLqU53mnp6cHCtM9oGnaNxRFGWx1rLXr8EQica6maXcAoYH1hr1kmuZHXdd9dEsJwuzZfNay6F8NDhYPCj0qyWTy1kQi8fmx1EFwXfdnsiyHBEGsydROKw+C53m/ME1zN8jnAAwxDDsf6kuMcT2iyyMEpiUCEUGYlssSDaoZAkEdBGbB8yZOLt3Ug1C9w8fwEYOGwlchJ2GjxyGCe7tFYCYShGw2ewBJkj/q7+8PVGKy2Swkmd4GBlhPT482jsUk2travl0qlT4bqvAkk8lez/MOVxTl3836a2tru6BSqdweehBSqdSbqVTqjO7u7j+NNoa2trb3GYbx5JDBvkUEwbbt4yuVyh+GPy+TySRd14UKxifDazWPCBjx54xmjId9gUSooiizfD+QNYBkWz+TyQwMxxgIgmEYKyVJOhqugzh9hmF+oCgKhIFtjGFMpVJzPc+7S5blIFcBWiKR+A9N06eXSqU/joRZPB7vSCaTt/T29n4svC6Xyz3jOM5ZoxU6a9QvVMj2PO9OWG84+QaiAJKxlUrlf5sQhIdKpdLCVjwIoIhVLhceV1XtUMepTj+fzz/rOM4JrUrx8jx/CEVRIHO6NQjCuAqlJZPJXRBCj8iyvFutgraPYdgFiqJEBGG0D4Do9RmBQEQQZsQyRYMMEagnCC5GIizMPq7lIYRZys0yC4YTBOg38iJsv/trJhIECDeRJOkblmWdY9t2kFMDxrmmaSdaltXUoG+2yoIg7OS67r2Korw/9ErwPP88wzDH1Z2Ab3Y7z/OQKP1jUO0BI5Pn+YphGB9TVfV3o+0onucPQgg9XalUxk0QstnsIBi1GzZs2IwgwPNzudw3C4XCF8KxQDiOaZrLmqkyDR9zLBbbF8fxB6EriqIwkiRftywLVJ3+Wn9tTcXoXlmWj4Hfg8oPwzC3yLIMBGGTcKZkMvkJgiB+UC6Xs2HBMo7jbo3H418aHBxUmuGWz+cTpmleW+szeAaGYSUcx4/WNO3Po+E97PUYJA0rivL1UMkIFJcwDDuq0drlcrl9PM+DEKOWCEIV+8xdkiSdC9wKSEg6nX7D9/2jRVF8t5Wxchx3cCwWg3ofYWL3ZHoQxkUQGIbZJRaLQYjR7jXFKl8QBAgxuruVOUbXRAhMdwQigjDdVyga3yYIhJWUTUQsdfAqQajmE+BBcbT3WjX2dSNRqMs5gOswKJoW7H48Igjb8R6biQQBlisej59BUdQdoihyYGhCyApFUd8sFouQM9BSImi47JlM5hzf928BYx2MOY7jvHg8/oVCofD9kRJ68/n8yZIkPQwEBYgKnJwLgtC0wm79NovH48dgGPZLRVHGmoOwMcRoSGFpkKIoqKTckCCkUqkzMQy7XdM0DioAC4Kwzvf9j8uy/HIrW57n+Y/6vv+LMNeD47jXWZY9bmBg4O1mBCGUAaVpuiFBSKVSKdu2bzJN84zQW9PW1lbQNO1CRVGahnNB4GR7e/s5mqbdbhgGAXjDuieTyc+KonhTs0TyRvNMJBL5IUfH1y3LOhdehxAxnuc3EATxEVEU/zb8nvEQBCCPGObfJMsKD/uC5/kBx3HOqCVlwyfviPrSuVzuUEVRHjYMo96DADkIQNg2a1tYB2EnDMNeFEVxFnQMaxiLxb6nqurlI+2ToRCvXSqVCoQY7Q7vgUQi4RMEERGEVt5c0TUzAoGIIMyIZYoGGSJQJQiLXjARvo+D48iHSmjQ/Pf0TatEoS7UKNjl9T4FbyOZgOTmqG2/CMxUgjB79uwFlUrlR5VK5RAwaCBERBCEPsgbkCRp1BP8cMUhAdVxnJsVRYGk0CCXIJ1O/0XX9TMURRkx2TiRSCyjKOo3qqrGQnWedDr99XK5/NWREoHBSDZN8zocxy9SVXWj6k88Hj9NVdWGBiCMt5aDADUgBPg/EAQIW2kUYgSvgzynpmmrRFGcD54RgiC8oZP3q0ul0nWjGahQF6JcLl/p+/6XwkJnPM8/JgjCx4fH0dd7EGAtwJtS8yBc2ohgZbPZI2RZvhMhtDOQBDAuWZZ9MhaLfapUKq1v9m6kaXpXkiTv03V9KZADOP3P5XJ/1TQN4t5b9iLE4/Ejfd//kaZpc+BZYMCTJPkAjuNXqKoKe2iTNh6CkEqlluC4/5AkKYtgnHDCjuM47LPPtxDiRcVisStpmv5/oigGH9CTnKQ8LoLAcVwXTdO/qlQqS2ohWoDl5bWq1Nvvh2o0820GgYggbDNLuX1MpCFBCBMK6olCHWGoJi2H8qfvFVGrIhYRhO1j5zSe5UwlCHDQmclkznZd92ZJkjgIOYFT8nQ6/QfLsq5UVfWp0YzgTCazm+d5X4fqyXXJtXAKCqfSPxhNDhROUC3Lgtj7A0H6EnIRBEF4hSTJM4vFYrNQJ5aiqE+lUqlvDg4OBsnGY0xS3oQgjORBACPf9/2bC4XC2UB+aoZmN0mSnyoUCs+OtO/BwzEkB3r7wMBAIPsqCIJC0/Slg4ODoEq0SavlIAQhRoBjrdIweBAaEgSIQkomk/8ty/JVoYFeCxn6fKVSAW9AUw9QKpW6BtYXahHAc8D4TiQSD7uu+7WR8kXCAfM8v4AkyRvL5fKxcD+M1/M8WxAEqIFwb6MEbiAIterdLYcYdXUhTpJit+u6dWZIZoYSozf4vg/zhgJ8TeeYTqdP0XX9+7Ztd4QhUKlUalJDjMbjQYAUEp7nn9I0bT8gCIAlEEPTNC+pe++N6i3Znj9/o7lPbwQigjC91yca3TAEgjoI3IIXdUTubUOxsyBeqO7jOCQG4c+NO7zmQQhDjTY6uCOCsD1vshlMEMBoTUNYkaZpoEgTLCMk4wqC8Ibruj/BMOyJWCz25rCkWiqXy+3suu4yDMPOsCzrYEWphr6DIScIwm9d1wW1nTUt7Asqk8l8RxTFS0J5TzA6MQy71ff9b+i6vslpOJyAJxIJkCq9qFgs5sMiXVtCEDAMA5nThiFGNUKwzPf9h0C+NSQjLMv+lSCIb0iS9MsGp9lkPp8/yrZtOL0+GPAEIxUMQYIgPt0ohr6mYrRSFMWj6wjCrbIsg6HYMB0qk8ksBpUlURTfH9YiiMfjq2maBhWoF5phD/kivu9fL8vyKeF8gFzgOP4njuPu0DTtSV3XQTZ1k9yHXC7Hq6p6BEmSZ2ma9hGYV+j1yWazL6uqeophGO80eu5wggD3xmKxpjKnYR/pNP8Rz8PvlyQpGa51NpvtAe+R7/uPDPdWdHZ25iRJ+jDHcdeXy+VZITmoreN0JAhEOp1+rFwuHxW+f3iefxnqXdi2/UodlsRES+u28N6MLokQ2GIEIoKwxRBGHWxNBIAg/Du+64sVD+3tEnS1enLUIgTGicBMJggw5XQ6vSeGYddLknRc7TQ4CBOqyY7+w/M8kByVhk5uLYIgKNd1E77vgxb/QeVymQg9D9BXMpn8o+/7X6hUKs+3CmcmkznGNM0fqqo6G8hBLZ4diMpvHMf5M0EQ6xzHSfu+v1MikdhXluX9IawmPFWuNwI5jjtN1/WmIUYdHR0n67p+p6IoKSAV8Xh8gGGYE5vlIMAcqoo65StN0/zv0CAGMjOUd7HedV0IxXrT87x/4TiukSQ5W9f1AwiCOF7TtC64H66NxWIDBEFcKsvy/zTCZd68eW2Dg4MrZVk+GuZVU0wCggAehGY1FwhIWHYcB3IkAmlZeFYqlVpJkuSXCoVCb7M1SCaTB1AU9f1yuRzIiNadsiu+778AmFuW1TNEBt51XTc7FE4EoUSQaH00JEeHhKSWw9BtmuYXdV1f1ex5O+644z4gq6uqalBJGdYPCIKqqg0lR8N+eJ6HZ31NVdWLQilcuFcQhLLjOC/EYrF3dF1/gyRJZSh0ap7jOEtwHD+0VCoJqVTKVRSFgOtrtT5EhNCKZoXSaJo+iWGYVZAwDy2Xy63Xdf1sVVV/O9peBtLled6LlUolyEEAXCiK+p5pmiPmIIDzK5lMXub7/g2QvwPrXtuXz+q6/ttYLKZalmUJgvBYb29vS8nZo401ej1CYGsiEBGErYl29KwtRqBGEF6qeGiJS0KBn4ggbDGo23EHM50g1Az7/YeMvqshbAT+H1YXDzXowfAMjUL4Cf+v/10tPv91kiRXSJL05Fi2A8iJMgzz1d7e3s/BfWAkgREJcftgaA2p8xiu67IQ/hQa3CzLghUHMfP7DIWSCHA9hAAlk8lTa+EnDYcgCMJJJElCiFEKLgDJ0VqhtBElQgVB2JmiKCj69gkYV0hkoA+YO8uyvQzDmJqm5TVNiwNuYQJxLBaTANtEInFXMwnZRCLRRtP0yiFPRiBzCkXZCIK4tVwuN/UgwHVtbW3tpmne4rrux0MvzlDSsTRU1fiyDRs23DPCOkAdhffjOP5lRVGOxHEcA5IA2IfjruUV6EMeJk6W5U26CvdCMpnsdhzn+s7OzpVr1qypLlCDlkql9oYQI6ikXCNMsJ9G9SBAV+l0eg/IcdE0bRk8N9wHISFKp9NQ9E0fHByMhWQnHo+/w7Ls45qmnW6aJg/PHDLERcMwoBJ1Q1ICe8O27VXgSasl7a/DMOzsVvJxgCAAYbEsqxP2IeBIkmQrBAHCuyBBeZWqqrsC2Yax1vYygvyabDYL1cXPHyHkbixvt+jaCIGtikBEELYq3NHDthSBiCBsKYLR/fUIbAsEAeYDycaGYVyMYdhxqqq2gcEIBldIGEJJzXojMjTSwGDGcVGnsekAABYQSURBVPzHDMNc0aoEaD2GPM8vJEny26ZpfiQMdQrJQn0oS814LuA4fqthGE8zDHO7LMu7hoQmHo+PeCoNqklQ2wBCVmpKM0WO4z7c398/IkGo4bOLbduXUhQFNQcEwAfmHaoBhafwYUgR/Mzn828qinITx3ErR5Eg7bAsC0JpDg9JB4Zht+m6DgRhxKrN6XT6WF3Xf2AYxryQKMXj8b/wPH9mX1/fv0Z6t+ZyuYWe551rmiYkdwchVOH4Q7la+F29xyA85WYY5kUcx2+SJOlXCCFjpOfMmjVrH9M0oQ7CgrA/IAiGYYzoQQj7FAThgxiGXSlJEoR7BQnL9fuk/tnt7e1AWj6nqqoUj8cfKJVKHXBPJpMpsyy7oqenp5mK0clDRvrD4f6Ox+M9DMNA0veoCftAIEmS/COEvYVYDSXS3yiK4mdH+7Rsb2+Pe553iaZpV6mqysL14TrWktWfY1n2nMHBwbdG6yt6PUJguiEQEYTptiLReEZEICII0QaZSAS2FYJQM4IhfOiDEGvOsizo/e8RVsqF1+Hf9QZMiCMYMjRNQyLCNzAMu6NSqRTHijEkLIOh6jjOpz3PmwMn9aGhBH1lMhnX930I91iJYdhjqqrmYrHYqnK5vBReB7JC0/QnDcO4v9mzBUFYDoXGhlRiAoKQzWYLpmk2LJTWqA+IcS+Xy4eRJHkcQRAfHkrEzobXhQY1GIjgUXBddxXEyRuGAfkN1iiGOoSm3FcqlQ4HjGuGIYzzohaqNkPC8pehyrOmacH3Mc/z8ON2iqK+OFIdCrgonU4D2TnQcRzIl4Bwr/2B7MBfONEGAhSuezwehzCz33ue9wTDML8tFotvtuKCFQRhKYZhD4qiuADWFPoDmV1ZlmGtRpQrDXFLp9O7Yxi23Pf9U8rl8vyw4FpIzBKJhEHT9COu695XLpcfz2QyB1EU9ejAwEAeCEItLGlFM5WreDz+Cdd1HwwVpziO20BR1Nk1WdURt7MgCPNqIUaBpGotefsm27ahjsWobSiZHe47zbbtz5Mk2VFPftra2p7Tdf3cSqUCWEctQmBGIRARhBm1XNFgI4IQ7YGJRGBbIgghLrXk5Z0ty1qM43hWURSe4zgInVGHTjtLGIYppmkeRlHUctu22TA2XxAEzXXdG13XhdPvDWPFGVSDDMNY4rruHpIktQuCEPd9X8dxXLQs6z+u6/5rSP8/rCGQSCaTu5mmKQydLrs0TZMkSf5rJJnPTCYzB8fxebquQ2w6PmRYm6ZpvjaUDFway1hzudwswzAWEASxcEh6MwN5GYqiQHJyZSheHmorrHZdd3Wr/XZ1dXGO4+xRLpfTiUTCNQwDjOYBVVUh/2NUA7puPBAz6fu+TxIEoRAE8Y/RCEI4b6j63NvbCwpFi3Acz3meJxiGkaEoCkgBkL8ywzDvSJK0xjRNiIcf0bNRjyfsJ5qm94BQMdd1fcdxfM/zXq/tkVHnF/YFidK+7+/qOM6eOI63aZomxGIxx7KsAk3Tb+E4/rdisRjsu3Q6fYjjOD+tVCod4HHwPK+cSCQuKhQKoIC0WeM4DnJgoLI44I/FYjHDtm3wAEEY2ogNvACqqu4Xi8VoWZZdx3FIjuO6K5XKG6PdG74OfSCEDhBFEZSeOiiKModkfAdd111D0/RfSqXSpnFerXYcXRchMIUIRARhCsGPHj12BCKCMHbMojuaI7AtEoRhs4XPeKqzs5Ps6elxwtNw0HBnWfYiRVEuAJn5MMwHDDbHce4mCOLGLTn1XLx4MS2KIjwT3BZwAj9dk4XAKMc7Ozvxnp4eMJqbxuLPsPcR1d7eThME4dev+zSaA9XV1QWk0O/u7t5sfyQSCSCwD4CaEYwZksoNw7hQ07RfT6M5NBwKJMZ3d3eH+366DzcaX4RAUwQighBtjhmFQEQQZtRyTfvB1hOEPXH5+y8fPzdItt0eGhQs833/As/zPlepVDbKjkK4Dcdxv/F9H6Q+/7E9YBHNcXohQBDEcpBttW0biurBfnyDYZjzRFF8bnqNNBpNhMC2i0BEELbdtd0mZxYRhG1yWadsUtszQQDQIezDtu3ThzwIV8uy3BYmLkOsOWj/e553uSiKf5+yBYoevF0iIAjCF33fv0aWZbomx/qy4zhnK4oCYVtRixCIENgKCEQEYSuAHD1i4hCICMLEYRn1BHX2PET4PiJsD+2OS9//8/E7bTcehLr1j2UymVP+f3v3FyPXddcB/Ny5M7N/Zj1ju4qjJg3g1CLEjRCNQNAKVFWgUEqhTUBFCCpeEA+88ecFXngACUGFy1/xgESVSJUgeUBKkfj3glI3SE1aQRAQ86cvaauo62jtnV3vzp97L7kzO/ZmYyfrzO7xmfozkrXe7Mw9v/v5XW/ud+6ce16/RWYdEh6oJ+r2er36x39SFMUf3GxxMMcOgdsQuK2Fwrrd7unRaPRkWZYfm02y7na7z7bb7Z8/7JyM26jNUwkQuIWAgODQWCgBAWGh2pV8sQLC9RblvV7v8SzL/iiEcN9gMPi9+tal7+SORsk3XYHRBOoJ3GVZ/uRoNLq0vr5+qCtRq6urvxhC+Mz+BeRWV1d/u76VaLTCDUSAQBAQHAQLJSAgLFS7ki/2DQEhu3LhxY8/+Harpya/T3MUmJ05c+aJEMLZRqPx5Kuvvro+x7a8lEB9K9rvG4/HTxVF8fWqqj7d6/W+cKsF5+rJ4isrKx9YW1v7i/X19YdnaxL0er2r29vbH6sXM0NKgEA8AQEhnrWRjkBAQDgCRJu4LiAgvOlgaJ07d67xVivrOnwIHEbg3nvvPTMajX6/3+//Qr3C8z333PNav9+v12D4p/F4/GK323213+9Xy8vLp3d2du5vNBo/kmXZz169evXB2fY7nU4YDod/3Ol0fuvKlStXDjOu5xAgcDQCAsLRONpKJIG9gPDFfhneXzTrOxSmevfESCCGmUtAQJiLz4sJ3FLg5MmT355l2R+Ox+NP9Pv9ycre9VWBTqdTr7fxUlmW61mWVaurqyd3dnbuK4riXH3Hotnq2/Vzm83m3zWbzV/f2tr6T9QECMQVEBDiehttTgEBYU5AL3+DgIDggCBwbALZiRMnHmo2m7+S5/lPX758+XQ90myF7TowzNbfqP/77CNF9d9fv2JQ5Xn++dcXLfuda9euvXBsFdowAQK3FBAQHBwLJSAgLFS7ki9WQEi+RQpcfIFut9v9wTzPP1JV1Uf7/f5766sE9ceO6q9FUdQrJYf6dqZLS0v1mgcvjEajZ4bD4d8MBoP/XfzdtwcEFlNAQFjMvt21VX/g6VdW/quz9sWrVfX+qpmHUDXuWgs7fmuBRhVCeajfbkXIqzIsDUN4pNq88KXHv+NunqTskCJwbAL1wnx5nj9UFMX5LMvOvz55+cHxePxtS0tLg0aj8Y2dnZ2vNpvNlweDwZeHw+Gl2arfx1aQDRMg8JYCh/pfKEMCqQjUAeHl7qmLG7sbj2adTqiKVn3zixCqMP0z/e764+AMhYNxwgyGVDr7Duuof4PdpO9ZFUKV7ZuhMvtNt++5ZVaGkA9DGI9Cd7gSHqn6F55//D0CwjtshZcROKzAqVOneoPBoNNqtVYGg0G5trY2KIpie2NjY/PGv+jDbs3zCBA4DgEB4ThUbfPYBOqA8B9rpy5uDg8EhHrEqpxcUWhMJi43wuQEsL7CsO9rY3LFoQxZ1QhVVoayjhM3ed7B1/k+UadJHLzR97qv01hwoL/7njcLkWU2DqE5DNmwCr29gHDxifsEhGP712vDBAgQILAoAgLConRKnROB9zz9/Mr62sMXG+2lR3d2d0NotsJkNY/JO8N7gWDvBHF2ovimAFDHgr0TyTK7cUJ5/fkHX+/7vesy0xPv5JxmAW9fX68HxJsFwH3Xl5r1Z5EGZVgZt8PD2ZULX3IFwW8aAgQIECBgoTTHwGIJ1FcQ/n2tc3GrP340P30qFMXum291uvcxksmeHYzAs4+Y7H093OfUF8vorqr24EeHDvb1Vm+BVCHU2SDPGqEalaFdNML56rULLz5hDsJddfzYWQIECBC4qYArCA6MhRKo72L0fyvnnt/ITnzPqL4K0BqHEOo/h3zsDw/1++EHvj/kVjwtAYFJuJsrIDRCFlohjIvQqopwvnjtM1954uyvJrBrSiBAgAABAndUQEC4o/wGv12B808/3R7lP/Dc11rv+v6d9moIVX0FYXhgavLhtyogHN4qtWdev/qzf6LywbsX3ewKUlaGRll/VKqerZKHRlGGlTAO58frv/vC4+/9zdT2Uz0ECBAgQCC2gIAQW9x4cwt88K9f/rOX8tO/vLV6MjSqIoRsvDfZeG/T+4/q67dBvcX9ilxBmLsfd3QDs6sIsz5e72c9qbq+wnCg73tzVeo5KJOfNPLJbU575XB8fvTNX7r4ie/87B3dH4MTIECAAIEEBASEBJqghNsT+LG//JefeeX+83/134MshEY2mZ9cv5s8ua3lZNLx/sfe97NJzLc3lGenLnCz25dOat4LCPVf94eE+k5XIYS8ns9eHy+NRlgui/Du8c6lh0brn/r7n3rEqq2p91x9BAgQIHDsAgLCsRMb4KgFPvXUP5z5n9Wzn/1qtvrRQWsljPNWGBbj0Gg1w6AoJl/Logohq1PD9Lan9X3x60d9Ujh9zN5Znm+htao63ksQWb0PC/yY1+ft9n9yK9vJXJJpH2d9nt3mNGvmoRgO69nIodlshmIwCHVNS41mGBXD0FxuhvbmRvjuVvPP7x987dee+eQHdxaYW+kECBAgQOBIBBb77ONICGxkEQV+6E//8YevPfDQk6+MW/dvVq3QXF0Ow7IIo6qaLFnQWloJZVmGajw9gc/L6Ynk9HPr5b6gMF9AeLsT2Hlt5z3Bnnf8eV8/r89b7/+Njw9N1z+YTjqf9rheByGEshqH9vJyGG5vTdbJaLfaoZ6a3Mzz0CgHodrdCA/k1aX37Y5+7plPPvzleffX6wkQIECAwLeCgIDwrdDFu3QfPvK5f/3RS813/cbu6Xd/6PLmlVDkWVg50Q3XhqNQDUYhNJuhsfeRo/z67S+nJ5XTjyPN1k24SwEnEHNeAbnDVzimsWC68N20sTcC33Ql5ToxlGF5ZSnsbm+FlaXl0MiqsP3N9XDmdCd0tr7+7COrzU9//ifed/EuPgrsOgECBAgQeIOAgOCAWGiB7/3cSw9uLZ/68Wuj0YfavROPXe73T5w4eSpsb++EdrsdynEx+dhJfdpYf52snjyZr7D37vO+E8pFhJj3Hfrj3ufjvgJSn+zXj9lHjKZ3JtrLClkIeZ6HwWAQ2q18EiSG17bD6tLyK53O8nOtq689d7Zb/e2zj33XN47bwfYJECBAgMAiCQgIi9Qttd5S4LGn/q3TXt4+WbTay/1rO1Wv1wtXd3fD0r5XLNeniOPG5Jgf7P/BHK5HtJk5KnjjS8vG8b+l3yjb+y47DI6s9qPd0KwzgzAYhNDtLoXNzc2w0mxVm5u7/fxssfHPH/7wbSygcbTV2RoBAgQIEEhZQEBIuTtqI0CAAAECBAgQIBBZQECIDG44AgQIECBAgAABAikLCAgpd0dtBAgQIECAAAECBCILCAiRwQ1HgAABAgQIECBAIGUBASHl7qiNAAECBAgQIECAQGQBASEyuOEIECBAgAABAgQIpCwgIKTcHbURIECAAAECBAgQiCwgIEQGNxwBAgQIECBAgACBlAUEhJS7ozYCBAgQIECAAAECkQUEhMjghiNAgAABAgQIECCQsoCAkHJ31EaAAAECBAgQIEAgsoCAEBnccAQIECBAgAABAgRSFhAQUu6O2ggQIECAAAECBAhEFhAQIoMbjgABAgQIECBAgEDKAgJCyt1RGwECBAgQIECAAIHIAgJCZHDDESBAgAABAgQIEEhZQEBIuTtqI0CAAAECBAgQIBBZQECIDG44AgQIECBAgAABAikLCAgpd0dtBAgQIECAAAECBCILCAiRwQ1HgAABAgQIECBAIGUBASHl7qiNAAECBAgQIECAQGQBASEyuOEIECBAgAABAgQIpCwgIKTcHbURIECAAAECBAgQiCwgIEQGNxwBAgQIECBAgACBlAUEhJS7ozYCBAgQIECAAAECkQUEhMjghiNAgAABAgQIECCQsoCAkHJ31EaAAAECBAgQIEAgsoCAEBnccAQIECBAgAABAgRSFhAQUu6O2ggQIECAAAECBAhEFhAQIoMbjgABAgQIECBAgEDKAgJCyt1RGwECBAgQIECAAIHIAgJCZHDDESBAgAABAgQIEEhZQEBIuTtqI0CAAAECBAgQIBBZQECIDG44AgQIECBAgAABAikLCAgpd0dtBAgQIECAAAECBCILCAiRwQ1HgAABAgQIECBAIGUBASHl7qiNAAECBAgQIECAQGQBASEyuOEIECBAgAABAgQIpCwgIKTcHbURIECAAAECBAgQiCwgIEQGNxwBAgQIECBAgACBlAUEhJS7ozYCBAgQIECAAAECkQUEhMjghiNAgAABAgQIECCQsoCAkHJ31EaAAAECBAgQIEAgsoCAEBnccAQIECBAgAABAgRSFhAQUu6O2ggQIECAAAECBAhEFhAQIoMbjgABAgQIECBAgEDKAgJCyt1RGwECBAgQIECAAIHIAgJCZHDDESBAgAABAgQIEEhZQEBIuTtqI0CAAAECBAgQIBBZQECIDG44AgQIECBAgAABAikLCAgpd0dtBAgQIECAAAECBCILCAiRwQ1HgAABAgQIECBAIGUBASHl7qiNAAECBAgQIECAQGQBASEyuOEIECBAgAABAgQIpCwgIKTcHbURIECAAAECBAgQiCwgIEQGNxwBAgQIECBAgACBlAUEhJS7ozYCBAgQIECAAAECkQUEhMjghiNAgAABAgQIECCQsoCAkHJ31EaAAAECBAgQIEAgsoCAEBnccAQIECBAgAABAgRSFhAQUu6O2ggQIECAAAECBAhEFhAQIoMbjgABAgQIECBAgEDKAgJCyt1RGwECBAgQIECAAIHIAgJCZHDDESBAgAABAgQIEEhZQEBIuTtqI0CAAAECBAgQIBBZQECIDG44AgQIECBAgAABAikLCAgpd0dtBAgQIECAAAECBCILCAiRwQ1HgAABAgQIECBAIGUBASHl7qiNAAECBAgQIECAQGQBASEyuOEIECBAgAABAgQIpCwgIKTcHbURIECAAAECBAgQiCwgIEQGNxwBAgQIECBAgACBlAUEhJS7ozYCBAgQIECAAAECkQUEhMjghiNAgAABAgQIECCQsoCAkHJ31EaAAAECBAgQIEAgsoCAEBnccAQIECBAgAABAgRSFhAQUu6O2ggQIECAAAECBAhEFhAQIoMbjgABAgQIECBAgEDKAgJCyt1RGwECBAgQIECAAIHIAgJCZHDDESBAgAABAgQIEEhZQEBIuTtqI0CAAAECBAgQIBBZQECIDG44AgQIECBAgAABAikLCAgpd0dtBAgQIECAAAECBCILCAiRwQ1HgAABAgQIECBAIGUBASHl7qiNAAECBAgQIECAQGSB/wdJCGfjt6FFDwAAAABJRU5ErkJggg==;clipPath=inset(19.35% 13.67% 19.35% 20%);" vertex="1" parent="1">
          <mxGeometry x="1080" y="190" width="186" height="71.04" as="geometry" />
        </mxCell>
        <mxCell id="QL6J_voHw_CYIguVn-OH-28" style="edgeStyle=orthogonalEdgeStyle;rounded=0;orthogonalLoop=1;jettySize=auto;html=1;exitX=1;exitY=0.5;exitDx=0;exitDy=0;entryX=0;entryY=0.408;entryDx=0;entryDy=0;entryPerimeter=0;" edge="1" parent="1" source="QL6J_voHw_CYIguVn-OH-20" target="QL6J_voHw_CYIguVn-OH-26">
          <mxGeometry relative="1" as="geometry" />
        </mxCell>
        <mxCell id="QL6J_voHw_CYIguVn-OH-29" value="Amazaon Quick Sight&lt;div&gt;(data visualization)&lt;/div&gt;" style="text;html=1;align=center;verticalAlign=middle;whiteSpace=wrap;rounded=0;" vertex="1" parent="1">
          <mxGeometry x="1120" y="270" width="120" height="10" as="geometry" />
        </mxCell>
      </root>
    </mxGraphModel>
  </diagram>
</mxfile>
